ISO-10303-21;
HEADER;
/* Generated by software containing ST-Developer
 * from STEP Tools, Inc. (www.steptools.com) 
 */
/* OPTION: using custom renumber hook */

FILE_DESCRIPTION(
/* description */ ('STEP AP242 Edition 2',
'CAx-IF Rec.Pracs.---Representation and Presentation of Product Manufa
cturing Information (PMI)---4.0---2014-10-13',
'CAx-IF Rec.Pracs.---3D Tessellated Geometry---0.4---2014-09-14','2;1',
'CAx-IF Rec.Pracs.---User Defined Attributes---1.5---2016-08-15'),
/* implementation_level */ '2;1');

FILE_NAME(
/* name */ 'Center Scissor Arm Axle - Part 2',
/* time_stamp */ '2026-07-24T07:32:02Z',
/* author */ (''),
/* organization */ (''),
/* preprocessor_version */ 'ST-DEVELOPER v20',
/* originating_system */ 'ONSHAPE BY PTC INC, 1.218',
/* authorisation */ '  ');

FILE_SCHEMA (('AP242_MANAGED_MODEL_BASED_3D_ENGINEERING_MIM_LF { 1 0 10303 442 3 1 4 }'));
ENDSEC;

DATA;
#10=SHAPE_REPRESENTATION_RELATIONSHIP('','',#107,#11);
#11=ADVANCED_BREP_SHAPE_REPRESENTATION('',(#105),#205);
#12=PLANE('',#115);
#13=PLANE('',#116);
#14=CIRCLE('',#110,0.00499999999999981);
#15=CIRCLE('',#111,0.00499999999999981);
#16=CIRCLE('',#113,0.00404999999999987);
#17=CIRCLE('',#114,0.00404999999999987);
#18=ORIENTED_EDGE('',*,*,#34,.T.);
#19=ORIENTED_EDGE('',*,*,#35,.T.);
#20=ORIENTED_EDGE('',*,*,#36,.F.);
#21=ORIENTED_EDGE('',*,*,#37,.T.);
#22=ORIENTED_EDGE('',*,*,#38,.F.);
#23=ORIENTED_EDGE('',*,*,#39,.F.);
#24=ORIENTED_EDGE('',*,*,#40,.T.);
#25=ORIENTED_EDGE('',*,*,#41,.F.);
#26=ORIENTED_EDGE('',*,*,#36,.T.);
#27=ORIENTED_EDGE('',*,*,#40,.F.);
#28=ORIENTED_EDGE('',*,*,#37,.F.);
#29=ORIENTED_EDGE('',*,*,#41,.T.);
#30=ORIENTED_EDGE('',*,*,#39,.T.);
#31=ORIENTED_EDGE('',*,*,#35,.F.);
#32=ORIENTED_EDGE('',*,*,#38,.T.);
#33=ORIENTED_EDGE('',*,*,#34,.F.);
#34=EDGE_CURVE('',#42,#42,#50,.T.);
#35=EDGE_CURVE('',#43,#43,#51,.T.);
#36=EDGE_CURVE('',#44,#44,#14,.T.);
#37=EDGE_CURVE('',#45,#45,#15,.T.);
#38=EDGE_CURVE('',#46,#46,#52,.T.);
#39=EDGE_CURVE('',#47,#47,#53,.T.);
#40=EDGE_CURVE('',#48,#48,#16,.T.);
#41=EDGE_CURVE('',#49,#49,#17,.T.);
#42=VERTEX_POINT('',#154);
#43=VERTEX_POINT('',#166);
#44=VERTEX_POINT('',#168);
#45=VERTEX_POINT('',#170);
#46=VERTEX_POINT('',#183);
#47=VERTEX_POINT('',#195);
#48=VERTEX_POINT('',#197);
#49=VERTEX_POINT('',#199);
#50=B_SPLINE_CURVE_WITH_KNOTS('',3,(#143,#144,#145,#146,#147,#148,#149,
#150,#151,#152,#153),.UNSPECIFIED.,.T.,.F.,(1,1,1,1,1,1,1,1,1,1,1,1,1,1,
1),(-0.00377625807026623,-0.00251750538017749,-0.00125875269008874,3.4317999288638E-18,
0.00125875269008875,0.00251750538017749,0.00377625807026624,0.00503501076035498,
0.00629376345044373,0.00755251614053247,0.00881126883062122,0.01007002152071,
0.0113287742107987,0.0125875269008875,0.0138462795909762),.UNSPECIFIED.);
#51=B_SPLINE_CURVE_WITH_KNOTS('',3,(#155,#156,#157,#158,#159,#160,#161,
#162,#163,#164,#165),.UNSPECIFIED.,.T.,.F.,(1,1,1,1,1,1,1,1,1,1,1,1,1,1,
1),(-0.00377625807026623,-0.00251750538017749,-0.00125875269008874,2.94422008591849E-18,
0.00125875269008875,0.00251750538017749,0.00377625807026624,0.00503501076035498,
0.00629376345044373,0.00755251614053247,0.00881126883062122,0.01007002152071,
0.0113287742107987,0.0125875269008875,0.0138462795909762),.UNSPECIFIED.);
#52=B_SPLINE_CURVE_WITH_KNOTS('',3,(#172,#173,#174,#175,#176,#177,#178,
#179,#180,#181,#182),.UNSPECIFIED.,.T.,.F.,(1,1,1,1,1,1,1,1,1,1,1,1,1,1,
1),(-0.0037892355443237,-0.00252615702954913,-0.00126307851477457,4.11006888824988E-19,
0.00126307851477457,0.00252615702954913,0.0037892355443237,0.00505231405909826,
0.00631539257387283,0.00757847108864739,0.00884154960342196,0.0101046281181965,
0.0113677066329711,0.0126307851477457,0.0138938636625202),.UNSPECIFIED.);
#53=B_SPLINE_CURVE_WITH_KNOTS('',3,(#184,#185,#186,#187,#188,#189,#190,
#191,#192,#193,#194),.UNSPECIFIED.,.T.,.F.,(1,1,1,1,1,1,1,1,1,1,1,1,1,1,
1),(-0.0037892355443237,-0.00252615702954913,-0.00126307851477457,2.82393768198852E-19,
0.00126307851477457,0.00252615702954913,0.0037892355443237,0.00505231405909826,
0.00631539257387283,0.00757847108864739,0.00884154960342196,0.0101046281181965,
0.0113677066329711,0.0126307851477457,0.0138938636625202),.UNSPECIFIED.);
#54=EDGE_LOOP('',(#18));
#55=EDGE_LOOP('',(#19));
#56=EDGE_LOOP('',(#20));
#57=EDGE_LOOP('',(#21));
#58=EDGE_LOOP('',(#22));
#59=EDGE_LOOP('',(#23));
#60=EDGE_LOOP('',(#24));
#61=EDGE_LOOP('',(#25));
#62=EDGE_LOOP('',(#26));
#63=EDGE_LOOP('',(#27));
#64=EDGE_LOOP('',(#28));
#65=EDGE_LOOP('',(#29));
#66=EDGE_LOOP('',(#30));
#67=EDGE_LOOP('',(#31));
#68=EDGE_LOOP('',(#32));
#69=EDGE_LOOP('',(#33));
#70=FACE_BOUND('',#54,.T.);
#71=FACE_BOUND('',#55,.T.);
#72=FACE_BOUND('',#56,.T.);
#73=FACE_BOUND('',#57,.T.);
#74=FACE_BOUND('',#58,.T.);
#75=FACE_BOUND('',#59,.T.);
#76=FACE_BOUND('',#60,.T.);
#77=FACE_BOUND('',#61,.T.);
#78=FACE_BOUND('',#62,.T.);
#79=FACE_BOUND('',#63,.T.);
#80=FACE_BOUND('',#64,.T.);
#81=FACE_BOUND('',#65,.T.);
#82=FACE_BOUND('',#66,.T.);
#83=FACE_BOUND('',#67,.T.);
#84=FACE_BOUND('',#68,.T.);
#85=FACE_BOUND('',#69,.T.);
#86=CYLINDRICAL_SURFACE('',#109,0.00499999999999981);
#87=CYLINDRICAL_SURFACE('',#112,0.00404999999999987);
#88=CYLINDRICAL_SURFACE('',#117,0.0016);
#89=CYLINDRICAL_SURFACE('',#118,0.0016);
#90=ADVANCED_FACE('',(#70,#71,#72,#73),#86,.T.);
#91=ADVANCED_FACE('',(#74,#75,#76,#77),#87,.F.);
#92=ADVANCED_FACE('',(#78,#79),#12,.T.);
#93=ADVANCED_FACE('',(#80,#81),#13,.F.);
#94=ADVANCED_FACE('',(#82,#83),#88,.F.);
#95=ADVANCED_FACE('',(#84,#85),#89,.F.);
#96=CLOSED_SHELL('',(#90,#91,#92,#93,#94,#95));
#97=STYLED_ITEM('',(#98),#105);
#98=PRESENTATION_STYLE_ASSIGNMENT((#99));
#99=SURFACE_STYLE_USAGE(.BOTH.,#100);
#100=SURFACE_SIDE_STYLE('',(#101));
#101=SURFACE_STYLE_FILL_AREA(#102);
#102=FILL_AREA_STYLE('',(#103));
#103=FILL_AREA_STYLE_COLOUR('',#104);
#104=COLOUR_RGB('',0.372549019607843,0.654901960784314,0.23921568627451);
#105=MANIFOLD_SOLID_BREP('Part 2',#96);
#106=SHAPE_DEFINITION_REPRESENTATION(#210,#107);
#107=SHAPE_REPRESENTATION('Part 2',(#108),#205);
#108=AXIS2_PLACEMENT_3D('',#141,#119,#120);
#109=AXIS2_PLACEMENT_3D('',#142,#121,#122);
#110=AXIS2_PLACEMENT_3D('',#167,#123,#124);
#111=AXIS2_PLACEMENT_3D('',#169,#125,#126);
#112=AXIS2_PLACEMENT_3D('',#171,#127,#128);
#113=AXIS2_PLACEMENT_3D('',#196,#129,#130);
#114=AXIS2_PLACEMENT_3D('',#198,#131,#132);
#115=AXIS2_PLACEMENT_3D('',#200,#133,#134);
#116=AXIS2_PLACEMENT_3D('',#201,#135,#136);
#117=AXIS2_PLACEMENT_3D('',#202,#137,#138);
#118=AXIS2_PLACEMENT_3D('',#203,#139,#140);
#119=DIRECTION('',(0.,0.,1.));
#120=DIRECTION('',(1.,0.,0.));
#121=DIRECTION('',(0.,0.,-1.));
#122=DIRECTION('',(-1.,0.,0.));
#123=DIRECTION('',(0.,0.,1.));
#124=DIRECTION('',(1.,0.,0.));
#125=DIRECTION('',(0.,0.,1.));
#126=DIRECTION('',(1.,0.,0.));
#127=DIRECTION('',(0.,0.,-1.));
#128=DIRECTION('',(-1.,0.,0.));
#129=DIRECTION('',(0.,0.,1.));
#130=DIRECTION('',(1.,0.,0.));
#131=DIRECTION('',(0.,0.,1.));
#132=DIRECTION('',(1.,0.,0.));
#133=DIRECTION('',(0.,0.,1.));
#134=DIRECTION('',(1.,0.,0.));
#135=DIRECTION('',(0.,0.,1.));
#136=DIRECTION('',(1.,0.,0.));
#137=DIRECTION('',(0.,-1.,0.));
#138=DIRECTION('',(0.,0.,-1.));
#139=DIRECTION('',(0.,-1.,0.));
#140=DIRECTION('',(0.,0.,-1.));
#141=CARTESIAN_POINT('',(0.,0.,0.));
#142=CARTESIAN_POINT('',(1.87350135405495E-16,-2.80537312130625E-18,0.046));
#143=CARTESIAN_POINT('',(-0.00125446647996607,0.00487191807782535,0.0417469601471861));
#144=CARTESIAN_POINT('',(3.72476637653502E-8,0.00506403562285906,0.0412264083153503));
#145=CARTESIAN_POINT('',(0.00125431748931102,0.00487193943073725,0.0417474065914128));
#146=CARTESIAN_POINT('',(0.0017730592543456,0.00466961872392243,0.04299788225518));
#147=CARTESIAN_POINT('',(0.00125344322853611,0.00487211271610638,0.0442544701791608));
#148=CARTESIAN_POINT('',(1.03865298074835E-6,0.00506392229637776,0.0447728163870002));
#149=CARTESIAN_POINT('',(-0.00125363455880762,0.00487219783658809,0.0442542634547341));
#150=CARTESIAN_POINT('',(-0.00177297470508823,0.00466960260268781,0.0430001052540563));
#151=CARTESIAN_POINT('',(-0.00125446647996607,0.00487191807782535,0.0417469601471861));
#152=CARTESIAN_POINT('',(3.72476637653502E-8,0.00506403562285906,0.0412264083153503));
#153=CARTESIAN_POINT('',(0.00125431748931102,0.00487193943073725,0.0417474065914128));
#154=CARTESIAN_POINT('',(-3.10100670472783E-18,0.00499999999999981,0.0414));
#155=CARTESIAN_POINT('',(0.00125446647996609,-0.00487191807782544,0.0417469601471861));
#156=CARTESIAN_POINT('',(-3.72476637726686E-8,-0.00506403562285908,0.0412264083153503));
#157=CARTESIAN_POINT('',(-0.001254317489311,-0.00487193943073717,0.0417474065914127));
#158=CARTESIAN_POINT('',(-0.0017730592543456,-0.0046696187239223,0.0429978822551801));
#159=CARTESIAN_POINT('',(-0.00125344322853612,-0.00487211271610628,0.0442544701791607));
#160=CARTESIAN_POINT('',(-1.0386529807842E-6,-0.00506392229637776,0.0447728163870002));
#161=CARTESIAN_POINT('',(0.00125363455880762,-0.0048721978365882,0.0442542634547341));
#162=CARTESIAN_POINT('',(0.00177297470508823,-0.00466960260268795,0.0430001052540563));
#163=CARTESIAN_POINT('',(0.00125446647996609,-0.00487191807782544,0.0417469601471861));
#164=CARTESIAN_POINT('',(-3.72476637726686E-8,-0.00506403562285908,0.0412264083153503));
#165=CARTESIAN_POINT('',(-0.001254317489311,-0.00487193943073717,0.0417474065914127));
#166=CARTESIAN_POINT('',(3.46617063171896E-18,-0.00499999999999982,0.0414));
#167=CARTESIAN_POINT('',(1.87350135405495E-16,-2.80537312130625E-18,0.046));
#168=CARTESIAN_POINT('',(0.005,-2.80537312130625E-18,0.046));
#169=CARTESIAN_POINT('',(1.87350135405495E-16,-2.80537312130625E-18,0.04));
#170=CARTESIAN_POINT('',(0.005,-2.80537312130625E-18,0.04));
#171=CARTESIAN_POINT('',(1.26201132877313E-16,4.55364912443912E-18,0.046));
#172=CARTESIAN_POINT('',(-0.00125618928974068,0.00389154462235006,0.0417480338075054));
#173=CARTESIAN_POINT('',(4.96225289035667E-7,0.00412911066820416,0.0412260467564068));
#174=CARTESIAN_POINT('',(0.00125420438858454,0.00389201270483255,0.0417477791668673));
#175=CARTESIAN_POINT('',(0.0017729330144966,0.0036348454658948,0.042996633773754));
#176=CARTESIAN_POINT('',(0.00125405596147357,0.0038919149032026,0.044253612400209));
#177=CARTESIAN_POINT('',(3.12348942540354E-6,0.00412890995873894,0.0447730840503414));
#178=CARTESIAN_POINT('',(-0.00125393538541307,0.00389244198763365,0.0442540431105855));
#179=CARTESIAN_POINT('',(-0.00177246739452938,0.00363483051702557,0.0430021068078784));
#180=CARTESIAN_POINT('',(-0.00125618928974068,0.00389154462235006,0.0417480338075054));
#181=CARTESIAN_POINT('',(4.96225289035667E-7,0.00412911066820416,0.0412260467564068));
#182=CARTESIAN_POINT('',(0.00125420438858454,0.00389201270483255,0.0417477791668673));
#183=CARTESIAN_POINT('',(3.37504012101577E-19,0.00404999999999988,0.0414));
#184=CARTESIAN_POINT('',(0.00125618928974069,-0.00389154462235013,0.0417480338075054));
#185=CARTESIAN_POINT('',(-4.96225289041603E-7,-0.00412911066820416,0.0412260467564068));
#186=CARTESIAN_POINT('',(-0.00125420438858453,-0.00389201270483246,0.0417477791668673));
#187=CARTESIAN_POINT('',(-0.00177293301449659,-0.00363484546589467,0.042996633773754));
#188=CARTESIAN_POINT('',(-0.00125405596147358,-0.0038919149032025,0.044253612400209));
#189=CARTESIAN_POINT('',(-3.12348942543642E-6,-0.00412890995873893,0.0447730840503413));
#190=CARTESIAN_POINT('',(0.00125393538541305,-0.00389244198763373,0.0442540431105855));
#191=CARTESIAN_POINT('',(0.00177246739452938,-0.00363483051702568,0.0430021068078784));
#192=CARTESIAN_POINT('',(0.00125618928974069,-0.00389154462235013,0.0417480338075054));
#193=CARTESIAN_POINT('',(-4.96225289041603E-7,-0.00412911066820416,0.0412260467564068));
#194=CARTESIAN_POINT('',(-0.00125420438858453,-0.00389201270483246,0.0417477791668673));
#195=CARTESIAN_POINT('',(7.2467593484404E-19,-0.00404999999999987,0.0414));
#196=CARTESIAN_POINT('',(1.26201132877313E-16,4.55364912443912E-18,0.046));
#197=CARTESIAN_POINT('',(0.00405,4.55364912443912E-18,0.046));
#198=CARTESIAN_POINT('',(1.26201132877313E-16,4.55364912443912E-18,0.04));
#199=CARTESIAN_POINT('',(0.00405,4.55364912443912E-18,0.04));
#200=CARTESIAN_POINT('',(0.,0.,0.046));
#201=CARTESIAN_POINT('',(0.,0.,0.04));
#202=CARTESIAN_POINT('',(4.33680868994202E-19,0.025,0.043));
#203=CARTESIAN_POINT('',(4.33680868994202E-19,0.025,0.043));
#204=MECHANICAL_DESIGN_GEOMETRIC_PRESENTATION_REPRESENTATION('',(#97),#205);
#205=(
GEOMETRIC_REPRESENTATION_CONTEXT(3)
GLOBAL_UNCERTAINTY_ASSIGNED_CONTEXT((#206))
GLOBAL_UNIT_ASSIGNED_CONTEXT((#209,#208,#207))
REPRESENTATION_CONTEXT('Part 2','TOP_LEVEL_ASSEMBLY_PART')
);
#206=UNCERTAINTY_MEASURE_WITH_UNIT(LENGTH_MEASURE(2.E-5),#209,
'DISTANCE_ACCURACY_VALUE','Maximum Tolerance applied to model');
#207=(
NAMED_UNIT(*)
SI_UNIT($,.STERADIAN.)
SOLID_ANGLE_UNIT()
);
#208=(
NAMED_UNIT(*)
PLANE_ANGLE_UNIT()
SI_UNIT($,.RADIAN.)
);
#209=(
LENGTH_UNIT()
NAMED_UNIT(*)
SI_UNIT($,.METRE.)
);
#210=PRODUCT_DEFINITION_SHAPE('','',#211);
#211=PRODUCT_DEFINITION('','',#213,#212);
#212=PRODUCT_DEFINITION_CONTEXT('',#219,'design');
#213=PRODUCT_DEFINITION_FORMATION_WITH_SPECIFIED_SOURCE('','',#215,
 .NOT_KNOWN.);
#214=PRODUCT_RELATED_PRODUCT_CATEGORY('','',(#215));
#215=PRODUCT('Part 2','Part 2','Part 2',(#217));
#216=PRODUCT_CATEGORY('','');
#217=PRODUCT_CONTEXT('',#219,'mechanical');
#218=APPLICATION_PROTOCOL_DEFINITION('international standard',
'ap242_managed_model_based_3d_engineering',2020,#219);
#219=APPLICATION_CONTEXT('managed model based 3d engineering');
ENDSEC;
END-ISO-10303-21;
