ISO-10303-21;
HEADER;
/* Generated by software containing ST-Developer
 * from STEP Tools, Inc. (www.steptools.com) 
 */
/* OPTION: using custom renumber hook */

FILE_DESCRIPTION(
/* description */ ('STEP AP242 Edition 2',
'CAx-IF Rec.Pracs.---Representation and Presentation of Product Manufa
cturing Information (PMI)---4.0---2014-10-13',
'CAx-IF Rec.Pracs.---3D Tessellated Geometry---0.4---2014-09-14','2;1',
'CAx-IF Rec.Pracs.---User Defined Attributes---1.5---2016-08-15'),
/* implementation_level */ '2;1');

FILE_NAME(
/* name */ 'Nema 14 Motor Mount - Part 1',
/* time_stamp */ '2026-08-08T02:19:17Z',
/* author */ (''),
/* organization */ (''),
/* preprocessor_version */ 'ST-DEVELOPER v20',
/* originating_system */ 'ONSHAPE BY PTC INC, 1.219',
/* authorisation */ '  ');

FILE_SCHEMA (('AP242_MANAGED_MODEL_BASED_3D_ENGINEERING_MIM_LF { 1 0 10303 442 3 1 4 }'));
ENDSEC;

DATA;
#10=SHAPE_REPRESENTATION_RELATIONSHIP('','',#625,#11);
#11=ADVANCED_BREP_SHAPE_REPRESENTATION('',(#623),#1019);
#12=CONICAL_SURFACE('',#674,0.003,0.785398163397449);
#13=CONICAL_SURFACE('',#677,0.003,0.785398163397449);
#14=CONICAL_SURFACE('',#680,0.003,0.785398163397449);
#15=CONICAL_SURFACE('',#683,0.003,0.785398163397449);
#16=CYLINDRICAL_SURFACE('',#646,0.0145);
#17=CYLINDRICAL_SURFACE('',#666,0.00175);
#18=CYLINDRICAL_SURFACE('',#667,0.00175);
#19=CYLINDRICAL_SURFACE('',#668,0.00175);
#20=CYLINDRICAL_SURFACE('',#669,0.00175);
#21=CYLINDRICAL_SURFACE('',#672,0.0017);
#22=CYLINDRICAL_SURFACE('',#675,0.0017);
#23=CYLINDRICAL_SURFACE('',#678,0.0017);
#24=CYLINDRICAL_SURFACE('',#681,0.0017);
#25=CIRCLE('',#628,0.003);
#26=CIRCLE('',#630,0.003);
#27=CIRCLE('',#632,0.003);
#28=CIRCLE('',#633,0.003);
#29=CIRCLE('',#634,0.003);
#30=CIRCLE('',#635,0.003);
#31=CIRCLE('',#636,0.0145);
#32=CIRCLE('',#640,0.00175);
#33=CIRCLE('',#641,0.00175);
#34=CIRCLE('',#642,0.00175);
#35=CIRCLE('',#643,0.00175);
#36=CIRCLE('',#647,0.0145);
#37=CIRCLE('',#649,0.0017);
#38=CIRCLE('',#650,0.0017);
#39=CIRCLE('',#651,0.0017);
#40=CIRCLE('',#652,0.0017);
#41=CIRCLE('',#657,0.00175);
#42=CIRCLE('',#658,0.00175);
#43=CIRCLE('',#663,0.00175);
#44=CIRCLE('',#664,0.00175);
#45=CIRCLE('',#673,0.0017);
#46=CIRCLE('',#676,0.0017);
#47=CIRCLE('',#679,0.0017);
#48=CIRCLE('',#682,0.0017);
#49=ORIENTED_EDGE('',*,*,#201,.T.);
#50=ORIENTED_EDGE('',*,*,#202,.T.);
#51=ORIENTED_EDGE('',*,*,#203,.F.);
#52=ORIENTED_EDGE('',*,*,#204,.T.);
#53=ORIENTED_EDGE('',*,*,#205,.T.);
#54=ORIENTED_EDGE('',*,*,#206,.T.);
#55=ORIENTED_EDGE('',*,*,#207,.T.);
#56=ORIENTED_EDGE('',*,*,#208,.T.);
#57=ORIENTED_EDGE('',*,*,#209,.F.);
#58=ORIENTED_EDGE('',*,*,#210,.T.);
#59=ORIENTED_EDGE('',*,*,#211,.T.);
#60=ORIENTED_EDGE('',*,*,#212,.T.);
#61=ORIENTED_EDGE('',*,*,#213,.T.);
#62=ORIENTED_EDGE('',*,*,#214,.F.);
#63=ORIENTED_EDGE('',*,*,#215,.T.);
#64=ORIENTED_EDGE('',*,*,#216,.T.);
#65=ORIENTED_EDGE('',*,*,#217,.T.);
#66=ORIENTED_EDGE('',*,*,#218,.T.);
#67=ORIENTED_EDGE('',*,*,#219,.T.);
#68=ORIENTED_EDGE('',*,*,#220,.T.);
#69=ORIENTED_EDGE('',*,*,#221,.F.);
#70=ORIENTED_EDGE('',*,*,#222,.F.);
#71=ORIENTED_EDGE('',*,*,#223,.F.);
#72=ORIENTED_EDGE('',*,*,#224,.F.);
#73=ORIENTED_EDGE('',*,*,#225,.F.);
#74=ORIENTED_EDGE('',*,*,#226,.F.);
#75=ORIENTED_EDGE('',*,*,#227,.T.);
#76=ORIENTED_EDGE('',*,*,#228,.T.);
#77=ORIENTED_EDGE('',*,*,#221,.T.);
#78=ORIENTED_EDGE('',*,*,#229,.T.);
#79=ORIENTED_EDGE('',*,*,#230,.F.);
#80=ORIENTED_EDGE('',*,*,#231,.F.);
#81=ORIENTED_EDGE('',*,*,#232,.T.);
#82=ORIENTED_EDGE('',*,*,#233,.T.);
#83=ORIENTED_EDGE('',*,*,#234,.F.);
#84=ORIENTED_EDGE('',*,*,#235,.F.);
#85=ORIENTED_EDGE('',*,*,#236,.F.);
#86=ORIENTED_EDGE('',*,*,#237,.F.);
#87=ORIENTED_EDGE('',*,*,#238,.F.);
#88=ORIENTED_EDGE('',*,*,#239,.F.);
#89=ORIENTED_EDGE('',*,*,#240,.T.);
#90=ORIENTED_EDGE('',*,*,#231,.T.);
#91=ORIENTED_EDGE('',*,*,#219,.F.);
#92=ORIENTED_EDGE('',*,*,#241,.F.);
#93=ORIENTED_EDGE('',*,*,#227,.F.);
#94=ORIENTED_EDGE('',*,*,#242,.F.);
#95=ORIENTED_EDGE('',*,*,#239,.T.);
#96=ORIENTED_EDGE('',*,*,#243,.T.);
#97=ORIENTED_EDGE('',*,*,#244,.F.);
#98=ORIENTED_EDGE('',*,*,#245,.T.);
#99=ORIENTED_EDGE('',*,*,#229,.F.);
#100=ORIENTED_EDGE('',*,*,#220,.F.);
#101=ORIENTED_EDGE('',*,*,#244,.T.);
#102=ORIENTED_EDGE('',*,*,#223,.T.);
#103=ORIENTED_EDGE('',*,*,#246,.F.);
#104=ORIENTED_EDGE('',*,*,#247,.F.);
#105=ORIENTED_EDGE('',*,*,#248,.F.);
#106=ORIENTED_EDGE('',*,*,#249,.F.);
#107=ORIENTED_EDGE('',*,*,#250,.F.);
#108=ORIENTED_EDGE('',*,*,#230,.T.);
#109=ORIENTED_EDGE('',*,*,#245,.F.);
#110=ORIENTED_EDGE('',*,*,#243,.F.);
#111=ORIENTED_EDGE('',*,*,#238,.T.);
#112=ORIENTED_EDGE('',*,*,#246,.T.);
#113=ORIENTED_EDGE('',*,*,#251,.T.);
#114=ORIENTED_EDGE('',*,*,#203,.T.);
#115=ORIENTED_EDGE('',*,*,#209,.T.);
#116=ORIENTED_EDGE('',*,*,#252,.F.);
#117=ORIENTED_EDGE('',*,*,#253,.F.);
#118=ORIENTED_EDGE('',*,*,#254,.T.);
#119=ORIENTED_EDGE('',*,*,#253,.T.);
#120=ORIENTED_EDGE('',*,*,#255,.T.);
#121=ORIENTED_EDGE('',*,*,#233,.F.);
#122=ORIENTED_EDGE('',*,*,#256,.F.);
#123=ORIENTED_EDGE('',*,*,#204,.F.);
#124=ORIENTED_EDGE('',*,*,#257,.F.);
#125=ORIENTED_EDGE('',*,*,#258,.F.);
#126=ORIENTED_EDGE('',*,*,#225,.T.);
#127=ORIENTED_EDGE('',*,*,#259,.T.);
#128=ORIENTED_EDGE('',*,*,#217,.F.);
#129=ORIENTED_EDGE('',*,*,#260,.T.);
#130=ORIENTED_EDGE('',*,*,#261,.T.);
#131=ORIENTED_EDGE('',*,*,#215,.F.);
#132=ORIENTED_EDGE('',*,*,#262,.F.);
#133=ORIENTED_EDGE('',*,*,#263,.F.);
#134=ORIENTED_EDGE('',*,*,#257,.T.);
#135=ORIENTED_EDGE('',*,*,#206,.F.);
#136=ORIENTED_EDGE('',*,*,#262,.T.);
#137=ORIENTED_EDGE('',*,*,#214,.T.);
#138=ORIENTED_EDGE('',*,*,#264,.F.);
#139=ORIENTED_EDGE('',*,*,#265,.T.);
#140=ORIENTED_EDGE('',*,*,#213,.F.);
#141=ORIENTED_EDGE('',*,*,#266,.F.);
#142=ORIENTED_EDGE('',*,*,#267,.F.);
#143=ORIENTED_EDGE('',*,*,#264,.T.);
#144=ORIENTED_EDGE('',*,*,#212,.F.);
#145=ORIENTED_EDGE('',*,*,#268,.F.);
#146=ORIENTED_EDGE('',*,*,#269,.F.);
#147=ORIENTED_EDGE('',*,*,#266,.T.);
#148=ORIENTED_EDGE('',*,*,#270,.T.);
#149=ORIENTED_EDGE('',*,*,#271,.T.);
#150=ORIENTED_EDGE('',*,*,#201,.F.);
#151=ORIENTED_EDGE('',*,*,#251,.F.);
#152=ORIENTED_EDGE('',*,*,#272,.F.);
#153=ORIENTED_EDGE('',*,*,#268,.T.);
#154=ORIENTED_EDGE('',*,*,#211,.F.);
#155=ORIENTED_EDGE('',*,*,#254,.F.);
#156=ORIENTED_EDGE('',*,*,#256,.T.);
#157=ORIENTED_EDGE('',*,*,#232,.F.);
#158=ORIENTED_EDGE('',*,*,#240,.F.);
#159=ORIENTED_EDGE('',*,*,#242,.T.);
#160=ORIENTED_EDGE('',*,*,#226,.T.);
#161=ORIENTED_EDGE('',*,*,#258,.T.);
#162=ORIENTED_EDGE('',*,*,#263,.T.);
#163=ORIENTED_EDGE('',*,*,#265,.F.);
#164=ORIENTED_EDGE('',*,*,#267,.T.);
#165=ORIENTED_EDGE('',*,*,#269,.T.);
#166=ORIENTED_EDGE('',*,*,#272,.T.);
#167=ORIENTED_EDGE('',*,*,#235,.T.);
#168=ORIENTED_EDGE('',*,*,#271,.F.);
#169=ORIENTED_EDGE('',*,*,#234,.T.);
#170=ORIENTED_EDGE('',*,*,#270,.F.);
#171=ORIENTED_EDGE('',*,*,#237,.T.);
#172=ORIENTED_EDGE('',*,*,#261,.F.);
#173=ORIENTED_EDGE('',*,*,#236,.T.);
#174=ORIENTED_EDGE('',*,*,#260,.F.);
#175=ORIENTED_EDGE('',*,*,#241,.T.);
#176=ORIENTED_EDGE('',*,*,#218,.F.);
#177=ORIENTED_EDGE('',*,*,#259,.F.);
#178=ORIENTED_EDGE('',*,*,#224,.T.);
#179=ORIENTED_EDGE('',*,*,#228,.F.);
#180=ORIENTED_EDGE('',*,*,#255,.F.);
#181=ORIENTED_EDGE('',*,*,#252,.T.);
#182=ORIENTED_EDGE('',*,*,#222,.T.);
#183=ORIENTED_EDGE('',*,*,#273,.F.);
#184=ORIENTED_EDGE('',*,*,#250,.T.);
#185=ORIENTED_EDGE('',*,*,#273,.T.);
#186=ORIENTED_EDGE('',*,*,#208,.F.);
#187=ORIENTED_EDGE('',*,*,#274,.F.);
#188=ORIENTED_EDGE('',*,*,#249,.T.);
#189=ORIENTED_EDGE('',*,*,#274,.T.);
#190=ORIENTED_EDGE('',*,*,#207,.F.);
#191=ORIENTED_EDGE('',*,*,#275,.F.);
#192=ORIENTED_EDGE('',*,*,#248,.T.);
#193=ORIENTED_EDGE('',*,*,#275,.T.);
#194=ORIENTED_EDGE('',*,*,#205,.F.);
#195=ORIENTED_EDGE('',*,*,#216,.F.);
#196=ORIENTED_EDGE('',*,*,#276,.F.);
#197=ORIENTED_EDGE('',*,*,#247,.T.);
#198=ORIENTED_EDGE('',*,*,#276,.T.);
#199=ORIENTED_EDGE('',*,*,#202,.F.);
#200=ORIENTED_EDGE('',*,*,#210,.F.);
#201=EDGE_CURVE('',#277,#278,#333,.T.);
#202=EDGE_CURVE('',#278,#279,#25,.T.);
#203=EDGE_CURVE('',#277,#279,#334,.T.);
#204=EDGE_CURVE('',#280,#281,#335,.T.);
#205=EDGE_CURVE('',#281,#282,#26,.T.);
#206=EDGE_CURVE('',#282,#280,#336,.T.);
#207=EDGE_CURVE('',#283,#283,#27,.T.);
#208=EDGE_CURVE('',#284,#284,#28,.T.);
#209=EDGE_CURVE('',#279,#285,#337,.T.);
#210=EDGE_CURVE('',#279,#278,#29,.T.);
#211=EDGE_CURVE('',#278,#286,#338,.T.);
#212=EDGE_CURVE('',#286,#287,#339,.T.);
#213=EDGE_CURVE('',#287,#288,#340,.T.);
#214=EDGE_CURVE('',#289,#288,#341,.T.);
#215=EDGE_CURVE('',#289,#282,#342,.T.);
#216=EDGE_CURVE('',#282,#281,#30,.T.);
#217=EDGE_CURVE('',#281,#290,#343,.T.);
#218=EDGE_CURVE('',#290,#291,#344,.T.);
#219=EDGE_CURVE('',#291,#292,#345,.T.);
#220=EDGE_CURVE('',#292,#293,#346,.T.);
#221=EDGE_CURVE('',#294,#293,#347,.T.);
#222=EDGE_CURVE('',#285,#294,#348,.T.);
#223=EDGE_CURVE('',#295,#295,#31,.T.);
#224=EDGE_CURVE('',#296,#297,#349,.T.);
#225=EDGE_CURVE('',#298,#296,#350,.T.);
#226=EDGE_CURVE('',#299,#298,#351,.T.);
#227=EDGE_CURVE('',#299,#297,#352,.T.);
#228=EDGE_CURVE('',#300,#294,#353,.T.);
#229=EDGE_CURVE('',#293,#301,#354,.T.);
#230=EDGE_CURVE('',#302,#301,#355,.T.);
#231=EDGE_CURVE('',#303,#302,#356,.T.);
#232=EDGE_CURVE('',#303,#304,#357,.T.);
#233=EDGE_CURVE('',#304,#300,#358,.T.);
#234=EDGE_CURVE('',#305,#305,#32,.T.);
#235=EDGE_CURVE('',#306,#306,#33,.T.);
#236=EDGE_CURVE('',#307,#307,#34,.T.);
#237=EDGE_CURVE('',#308,#308,#35,.T.);
#238=EDGE_CURVE('',#309,#302,#359,.T.);
#239=EDGE_CURVE('',#310,#309,#360,.T.);
#240=EDGE_CURVE('',#310,#303,#361,.T.);
#241=EDGE_CURVE('',#297,#291,#362,.T.);
#242=EDGE_CURVE('',#310,#299,#363,.T.);
#243=EDGE_CURVE('',#309,#311,#364,.T.);
#244=EDGE_CURVE('',#292,#311,#365,.T.);
#245=EDGE_CURVE('',#311,#301,#366,.T.);
#246=EDGE_CURVE('',#312,#312,#36,.T.);
#247=EDGE_CURVE('',#313,#313,#37,.F.);
#248=EDGE_CURVE('',#314,#314,#38,.F.);
#249=EDGE_CURVE('',#315,#315,#39,.F.);
#250=EDGE_CURVE('',#316,#316,#40,.F.);
#251=EDGE_CURVE('',#317,#277,#367,.T.);
#252=EDGE_CURVE('',#318,#285,#368,.T.);
#253=EDGE_CURVE('',#319,#318,#369,.T.);
#254=EDGE_CURVE('',#319,#317,#370,.T.);
#255=EDGE_CURVE('',#318,#300,#371,.T.);
#256=EDGE_CURVE('',#319,#304,#372,.T.);
#257=EDGE_CURVE('',#320,#280,#373,.T.);
#258=EDGE_CURVE('',#298,#320,#374,.T.);
#259=EDGE_CURVE('',#296,#290,#375,.T.);
#260=EDGE_CURVE('',#321,#321,#41,.T.);
#261=EDGE_CURVE('',#322,#322,#42,.T.);
#262=EDGE_CURVE('',#323,#289,#376,.T.);
#263=EDGE_CURVE('',#320,#323,#377,.T.);
#264=EDGE_CURVE('',#324,#288,#378,.T.);
#265=EDGE_CURVE('',#324,#323,#379,.T.);
#266=EDGE_CURVE('',#325,#287,#380,.T.);
#267=EDGE_CURVE('',#324,#325,#381,.T.);
#268=EDGE_CURVE('',#326,#286,#382,.T.);
#269=EDGE_CURVE('',#325,#326,#383,.T.);
#270=EDGE_CURVE('',#327,#327,#43,.T.);
#271=EDGE_CURVE('',#328,#328,#44,.T.);
#272=EDGE_CURVE('',#326,#317,#384,.T.);
#273=EDGE_CURVE('',#329,#329,#45,.T.);
#274=EDGE_CURVE('',#330,#330,#46,.T.);
#275=EDGE_CURVE('',#331,#331,#47,.T.);
#276=EDGE_CURVE('',#332,#332,#48,.T.);
#277=VERTEX_POINT('',#855);
#278=VERTEX_POINT('',#856);
#279=VERTEX_POINT('',#858);
#280=VERTEX_POINT('',#862);
#281=VERTEX_POINT('',#863);
#282=VERTEX_POINT('',#865);
#283=VERTEX_POINT('',#869);
#284=VERTEX_POINT('',#871);
#285=VERTEX_POINT('',#873);
#286=VERTEX_POINT('',#876);
#287=VERTEX_POINT('',#878);
#288=VERTEX_POINT('',#880);
#289=VERTEX_POINT('',#882);
#290=VERTEX_POINT('',#886);
#291=VERTEX_POINT('',#888);
#292=VERTEX_POINT('',#890);
#293=VERTEX_POINT('',#892);
#294=VERTEX_POINT('',#894);
#295=VERTEX_POINT('',#897);
#296=VERTEX_POINT('',#900);
#297=VERTEX_POINT('',#901);
#298=VERTEX_POINT('',#903);
#299=VERTEX_POINT('',#905);
#300=VERTEX_POINT('',#909);
#301=VERTEX_POINT('',#911);
#302=VERTEX_POINT('',#913);
#303=VERTEX_POINT('',#915);
#304=VERTEX_POINT('',#917);
#305=VERTEX_POINT('',#921);
#306=VERTEX_POINT('',#923);
#307=VERTEX_POINT('',#925);
#308=VERTEX_POINT('',#927);
#309=VERTEX_POINT('',#929);
#310=VERTEX_POINT('',#931);
#311=VERTEX_POINT('',#937);
#312=VERTEX_POINT('',#943);
#313=VERTEX_POINT('',#946);
#314=VERTEX_POINT('',#948);
#315=VERTEX_POINT('',#950);
#316=VERTEX_POINT('',#952);
#317=VERTEX_POINT('',#955);
#318=VERTEX_POINT('',#957);
#319=VERTEX_POINT('',#959);
#320=VERTEX_POINT('',#966);
#321=VERTEX_POINT('',#971);
#322=VERTEX_POINT('',#973);
#323=VERTEX_POINT('',#975);
#324=VERTEX_POINT('',#979);
#325=VERTEX_POINT('',#983);
#326=VERTEX_POINT('',#987);
#327=VERTEX_POINT('',#991);
#328=VERTEX_POINT('',#993);
#329=VERTEX_POINT('',#1004);
#330=VERTEX_POINT('',#1008);
#331=VERTEX_POINT('',#1012);
#332=VERTEX_POINT('',#1016);
#333=LINE('',#854,#385);
#334=LINE('',#859,#386);
#335=LINE('',#861,#387);
#336=LINE('',#866,#388);
#337=LINE('',#872,#389);
#338=LINE('',#875,#390);
#339=LINE('',#877,#391);
#340=LINE('',#879,#392);
#341=LINE('',#881,#393);
#342=LINE('',#883,#394);
#343=LINE('',#885,#395);
#344=LINE('',#887,#396);
#345=LINE('',#889,#397);
#346=LINE('',#891,#398);
#347=LINE('',#893,#399);
#348=LINE('',#895,#400);
#349=LINE('',#899,#401);
#350=LINE('',#902,#402);
#351=LINE('',#904,#403);
#352=LINE('',#906,#404);
#353=LINE('',#908,#405);
#354=LINE('',#910,#406);
#355=LINE('',#912,#407);
#356=LINE('',#914,#408);
#357=LINE('',#916,#409);
#358=LINE('',#918,#410);
#359=LINE('',#928,#411);
#360=LINE('',#930,#412);
#361=LINE('',#932,#413);
#362=LINE('',#934,#414);
#363=LINE('',#935,#415);
#364=LINE('',#936,#416);
#365=LINE('',#938,#417);
#366=LINE('',#940,#418);
#367=LINE('',#954,#419);
#368=LINE('',#956,#420);
#369=LINE('',#958,#421);
#370=LINE('',#960,#422);
#371=LINE('',#962,#423);
#372=LINE('',#963,#424);
#373=LINE('',#965,#425);
#374=LINE('',#967,#426);
#375=LINE('',#968,#427);
#376=LINE('',#974,#428);
#377=LINE('',#976,#429);
#378=LINE('',#978,#430);
#379=LINE('',#980,#431);
#380=LINE('',#982,#432);
#381=LINE('',#984,#433);
#382=LINE('',#986,#434);
#383=LINE('',#988,#435);
#384=LINE('',#994,#436);
#385=VECTOR('',#688,1.);
#386=VECTOR('',#691,1.);
#387=VECTOR('',#694,1.);
#388=VECTOR('',#697,1.);
#389=VECTOR('',#704,1.);
#390=VECTOR('',#707,1.);
#391=VECTOR('',#708,1.);
#392=VECTOR('',#709,1.);
#393=VECTOR('',#710,1.);
#394=VECTOR('',#711,1.);
#395=VECTOR('',#714,1.);
#396=VECTOR('',#715,1.);
#397=VECTOR('',#716,1.);
#398=VECTOR('',#717,1.);
#399=VECTOR('',#718,1.);
#400=VECTOR('',#719,1.);
#401=VECTOR('',#724,1.);
#402=VECTOR('',#725,1.);
#403=VECTOR('',#726,1.);
#404=VECTOR('',#727,1.);
#405=VECTOR('',#730,1.);
#406=VECTOR('',#731,1.);
#407=VECTOR('',#732,1.);
#408=VECTOR('',#733,1.);
#409=VECTOR('',#734,1.);
#410=VECTOR('',#735,1.);
#411=VECTOR('',#746,1.);
#412=VECTOR('',#747,1.);
#413=VECTOR('',#748,1.);
#414=VECTOR('',#751,1.);
#415=VECTOR('',#752,1.);
#416=VECTOR('',#753,1.);
#417=VECTOR('',#754,1.);
#418=VECTOR('',#757,1.);
#419=VECTOR('',#774,1.);
#420=VECTOR('',#775,1.);
#421=VECTOR('',#776,1.);
#422=VECTOR('',#777,1.);
#423=VECTOR('',#780,1.);
#424=VECTOR('',#781,1.);
#425=VECTOR('',#784,1.);
#426=VECTOR('',#785,1.);
#427=VECTOR('',#786,1.);
#428=VECTOR('',#793,1.);
#429=VECTOR('',#794,1.);
#430=VECTOR('',#797,1.);
#431=VECTOR('',#798,1.);
#432=VECTOR('',#801,1.);
#433=VECTOR('',#802,1.);
#434=VECTOR('',#805,1.);
#435=VECTOR('',#806,1.);
#436=VECTOR('',#813,1.);
#437=EDGE_LOOP('',(#49,#50,#51));
#438=EDGE_LOOP('',(#52,#53,#54));
#439=EDGE_LOOP('',(#55));
#440=EDGE_LOOP('',(#56));
#441=EDGE_LOOP('',(#57,#58,#59,#60,#61,#62,#63,#64,#65,#66,#67,#68,#69,
#70));
#442=EDGE_LOOP('',(#71));
#443=EDGE_LOOP('',(#72,#73,#74,#75));
#444=EDGE_LOOP('',(#76,#77,#78,#79,#80,#81,#82));
#445=EDGE_LOOP('',(#83));
#446=EDGE_LOOP('',(#84));
#447=EDGE_LOOP('',(#85));
#448=EDGE_LOOP('',(#86));
#449=EDGE_LOOP('',(#87,#88,#89,#90));
#450=EDGE_LOOP('',(#91,#92,#93,#94,#95,#96,#97));
#451=EDGE_LOOP('',(#98,#99,#100,#101));
#452=EDGE_LOOP('',(#102));
#453=EDGE_LOOP('',(#103));
#454=EDGE_LOOP('',(#104));
#455=EDGE_LOOP('',(#105));
#456=EDGE_LOOP('',(#106));
#457=EDGE_LOOP('',(#107));
#458=EDGE_LOOP('',(#108,#109,#110,#111));
#459=EDGE_LOOP('',(#112));
#460=EDGE_LOOP('',(#113,#114,#115,#116,#117,#118));
#461=EDGE_LOOP('',(#119,#120,#121,#122));
#462=EDGE_LOOP('',(#123,#124,#125,#126,#127,#128));
#463=EDGE_LOOP('',(#129));
#464=EDGE_LOOP('',(#130));
#465=EDGE_LOOP('',(#131,#132,#133,#134,#135));
#466=EDGE_LOOP('',(#136,#137,#138,#139));
#467=EDGE_LOOP('',(#140,#141,#142,#143));
#468=EDGE_LOOP('',(#144,#145,#146,#147));
#469=EDGE_LOOP('',(#148));
#470=EDGE_LOOP('',(#149));
#471=EDGE_LOOP('',(#150,#151,#152,#153,#154));
#472=EDGE_LOOP('',(#155,#156,#157,#158,#159,#160,#161,#162,#163,#164,#165,
#166));
#473=EDGE_LOOP('',(#167));
#474=EDGE_LOOP('',(#168));
#475=EDGE_LOOP('',(#169));
#476=EDGE_LOOP('',(#170));
#477=EDGE_LOOP('',(#171));
#478=EDGE_LOOP('',(#172));
#479=EDGE_LOOP('',(#173));
#480=EDGE_LOOP('',(#174));
#481=EDGE_LOOP('',(#175,#176,#177,#178));
#482=EDGE_LOOP('',(#179,#180,#181,#182));
#483=EDGE_LOOP('',(#183));
#484=EDGE_LOOP('',(#184));
#485=EDGE_LOOP('',(#185));
#486=EDGE_LOOP('',(#186));
#487=EDGE_LOOP('',(#187));
#488=EDGE_LOOP('',(#188));
#489=EDGE_LOOP('',(#189));
#490=EDGE_LOOP('',(#190));
#491=EDGE_LOOP('',(#191));
#492=EDGE_LOOP('',(#192));
#493=EDGE_LOOP('',(#193));
#494=EDGE_LOOP('',(#194,#195));
#495=EDGE_LOOP('',(#196));
#496=EDGE_LOOP('',(#197));
#497=EDGE_LOOP('',(#198));
#498=EDGE_LOOP('',(#199,#200));
#499=FACE_BOUND('',#437,.T.);
#500=FACE_BOUND('',#438,.T.);
#501=FACE_BOUND('',#439,.T.);
#502=FACE_BOUND('',#440,.T.);
#503=FACE_BOUND('',#441,.T.);
#504=FACE_BOUND('',#442,.T.);
#505=FACE_BOUND('',#443,.T.);
#506=FACE_BOUND('',#444,.T.);
#507=FACE_BOUND('',#445,.T.);
#508=FACE_BOUND('',#446,.T.);
#509=FACE_BOUND('',#447,.T.);
#510=FACE_BOUND('',#448,.T.);
#511=FACE_BOUND('',#449,.T.);
#512=FACE_BOUND('',#450,.T.);
#513=FACE_BOUND('',#451,.T.);
#514=FACE_BOUND('',#452,.T.);
#515=FACE_BOUND('',#453,.T.);
#516=FACE_BOUND('',#454,.T.);
#517=FACE_BOUND('',#455,.T.);
#518=FACE_BOUND('',#456,.T.);
#519=FACE_BOUND('',#457,.T.);
#520=FACE_BOUND('',#458,.T.);
#521=FACE_BOUND('',#459,.T.);
#522=FACE_BOUND('',#460,.T.);
#523=FACE_BOUND('',#461,.T.);
#524=FACE_BOUND('',#462,.T.);
#525=FACE_BOUND('',#463,.T.);
#526=FACE_BOUND('',#464,.T.);
#527=FACE_BOUND('',#465,.T.);
#528=FACE_BOUND('',#466,.T.);
#529=FACE_BOUND('',#467,.T.);
#530=FACE_BOUND('',#468,.T.);
#531=FACE_BOUND('',#469,.T.);
#532=FACE_BOUND('',#470,.T.);
#533=FACE_BOUND('',#471,.T.);
#534=FACE_BOUND('',#472,.T.);
#535=FACE_BOUND('',#473,.T.);
#536=FACE_BOUND('',#474,.T.);
#537=FACE_BOUND('',#475,.T.);
#538=FACE_BOUND('',#476,.T.);
#539=FACE_BOUND('',#477,.T.);
#540=FACE_BOUND('',#478,.T.);
#541=FACE_BOUND('',#479,.T.);
#542=FACE_BOUND('',#480,.T.);
#543=FACE_BOUND('',#481,.T.);
#544=FACE_BOUND('',#482,.T.);
#545=FACE_BOUND('',#483,.T.);
#546=FACE_BOUND('',#484,.T.);
#547=FACE_BOUND('',#485,.T.);
#548=FACE_BOUND('',#486,.T.);
#549=FACE_BOUND('',#487,.T.);
#550=FACE_BOUND('',#488,.T.);
#551=FACE_BOUND('',#489,.T.);
#552=FACE_BOUND('',#490,.T.);
#553=FACE_BOUND('',#491,.T.);
#554=FACE_BOUND('',#492,.T.);
#555=FACE_BOUND('',#493,.T.);
#556=FACE_BOUND('',#494,.T.);
#557=FACE_BOUND('',#495,.T.);
#558=FACE_BOUND('',#496,.T.);
#559=FACE_BOUND('',#497,.T.);
#560=FACE_BOUND('',#498,.T.);
#561=PLANE('',#627);
#562=PLANE('',#629);
#563=PLANE('',#631);
#564=PLANE('',#637);
#565=PLANE('',#638);
#566=PLANE('',#639);
#567=PLANE('',#644);
#568=PLANE('',#645);
#569=PLANE('',#648);
#570=PLANE('',#653);
#571=PLANE('',#654);
#572=PLANE('',#655);
#573=PLANE('',#656);
#574=PLANE('',#659);
#575=PLANE('',#660);
#576=PLANE('',#661);
#577=PLANE('',#662);
#578=PLANE('',#665);
#579=PLANE('',#670);
#580=PLANE('',#671);
#581=ADVANCED_FACE('',(#499),#561,.T.);
#582=ADVANCED_FACE('',(#500),#562,.T.);
#583=ADVANCED_FACE('',(#501,#502,#503,#504),#563,.T.);
#584=ADVANCED_FACE('',(#505),#564,.F.);
#585=ADVANCED_FACE('',(#506),#565,.T.);
#586=ADVANCED_FACE('',(#507,#508,#509,#510,#511),#566,.T.);
#587=ADVANCED_FACE('',(#512),#567,.F.);
#588=ADVANCED_FACE('',(#513),#568,.F.);
#589=ADVANCED_FACE('',(#514,#515),#16,.F.);
#590=ADVANCED_FACE('',(#516,#517,#518,#519,#520,#521),#569,.F.);
#591=ADVANCED_FACE('',(#522),#570,.T.);
#592=ADVANCED_FACE('',(#523),#571,.F.);
#593=ADVANCED_FACE('',(#524),#572,.F.);
#594=ADVANCED_FACE('',(#525,#526,#527),#573,.F.);
#595=ADVANCED_FACE('',(#528),#574,.T.);
#596=ADVANCED_FACE('',(#529),#575,.F.);
#597=ADVANCED_FACE('',(#530),#576,.F.);
#598=ADVANCED_FACE('',(#531,#532,#533),#577,.F.);
#599=ADVANCED_FACE('',(#534),#578,.T.);
#600=ADVANCED_FACE('',(#535,#536),#17,.F.);
#601=ADVANCED_FACE('',(#537,#538),#18,.F.);
#602=ADVANCED_FACE('',(#539,#540),#19,.F.);
#603=ADVANCED_FACE('',(#541,#542),#20,.F.);
#604=ADVANCED_FACE('',(#543),#579,.F.);
#605=ADVANCED_FACE('',(#544),#580,.T.);
#606=ADVANCED_FACE('',(#545,#546),#21,.F.);
#607=ADVANCED_FACE('',(#547,#548),#12,.F.);
#608=ADVANCED_FACE('',(#549,#550),#22,.F.);
#609=ADVANCED_FACE('',(#551,#552),#13,.F.);
#610=ADVANCED_FACE('',(#553,#554),#23,.F.);
#611=ADVANCED_FACE('',(#555,#556),#14,.F.);
#612=ADVANCED_FACE('',(#557,#558),#24,.F.);
#613=ADVANCED_FACE('',(#559,#560),#15,.F.);
#614=CLOSED_SHELL('',(#581,#582,#583,#584,#585,#586,#587,#588,#589,#590,
#591,#592,#593,#594,#595,#596,#597,#598,#599,#600,#601,#602,#603,#604,#605,
#606,#607,#608,#609,#610,#611,#612,#613));
#615=STYLED_ITEM('',(#616),#623);
#616=PRESENTATION_STYLE_ASSIGNMENT((#617));
#617=SURFACE_STYLE_USAGE(.BOTH.,#618);
#618=SURFACE_SIDE_STYLE('',(#619));
#619=SURFACE_STYLE_FILL_AREA(#620);
#620=FILL_AREA_STYLE('',(#621));
#621=FILL_AREA_STYLE_COLOUR('',#622);
#622=COLOUR_RGB('',0.372549019607843,0.654901960784314,0.23921568627451);
#623=MANIFOLD_SOLID_BREP('Part 1',#614);
#624=SHAPE_DEFINITION_REPRESENTATION(#1024,#625);
#625=SHAPE_REPRESENTATION('Part 1',(#626),#1019);
#626=AXIS2_PLACEMENT_3D('',#852,#684,#685);
#627=AXIS2_PLACEMENT_3D('',#853,#686,#687);
#628=AXIS2_PLACEMENT_3D('',#857,#689,#690);
#629=AXIS2_PLACEMENT_3D('',#860,#692,#693);
#630=AXIS2_PLACEMENT_3D('',#864,#695,#696);
#631=AXIS2_PLACEMENT_3D('',#867,#698,#699);
#632=AXIS2_PLACEMENT_3D('',#868,#700,#701);
#633=AXIS2_PLACEMENT_3D('',#870,#702,#703);
#634=AXIS2_PLACEMENT_3D('',#874,#705,#706);
#635=AXIS2_PLACEMENT_3D('',#884,#712,#713);
#636=AXIS2_PLACEMENT_3D('',#896,#720,#721);
#637=AXIS2_PLACEMENT_3D('',#898,#722,#723);
#638=AXIS2_PLACEMENT_3D('',#907,#728,#729);
#639=AXIS2_PLACEMENT_3D('',#919,#736,#737);
#640=AXIS2_PLACEMENT_3D('',#920,#738,#739);
#641=AXIS2_PLACEMENT_3D('',#922,#740,#741);
#642=AXIS2_PLACEMENT_3D('',#924,#742,#743);
#643=AXIS2_PLACEMENT_3D('',#926,#744,#745);
#644=AXIS2_PLACEMENT_3D('',#933,#749,#750);
#645=AXIS2_PLACEMENT_3D('',#939,#755,#756);
#646=AXIS2_PLACEMENT_3D('',#941,#758,#759);
#647=AXIS2_PLACEMENT_3D('',#942,#760,#761);
#648=AXIS2_PLACEMENT_3D('',#944,#762,#763);
#649=AXIS2_PLACEMENT_3D('',#945,#764,#765);
#650=AXIS2_PLACEMENT_3D('',#947,#766,#767);
#651=AXIS2_PLACEMENT_3D('',#949,#768,#769);
#652=AXIS2_PLACEMENT_3D('',#951,#770,#771);
#653=AXIS2_PLACEMENT_3D('',#953,#772,#773);
#654=AXIS2_PLACEMENT_3D('',#961,#778,#779);
#655=AXIS2_PLACEMENT_3D('',#964,#782,#783);
#656=AXIS2_PLACEMENT_3D('',#969,#787,#788);
#657=AXIS2_PLACEMENT_3D('',#970,#789,#790);
#658=AXIS2_PLACEMENT_3D('',#972,#791,#792);
#659=AXIS2_PLACEMENT_3D('',#977,#795,#796);
#660=AXIS2_PLACEMENT_3D('',#981,#799,#800);
#661=AXIS2_PLACEMENT_3D('',#985,#803,#804);
#662=AXIS2_PLACEMENT_3D('',#989,#807,#808);
#663=AXIS2_PLACEMENT_3D('',#990,#809,#810);
#664=AXIS2_PLACEMENT_3D('',#992,#811,#812);
#665=AXIS2_PLACEMENT_3D('',#995,#814,#815);
#666=AXIS2_PLACEMENT_3D('',#996,#816,#817);
#667=AXIS2_PLACEMENT_3D('',#997,#818,#819);
#668=AXIS2_PLACEMENT_3D('',#998,#820,#821);
#669=AXIS2_PLACEMENT_3D('',#999,#822,#823);
#670=AXIS2_PLACEMENT_3D('',#1000,#824,#825);
#671=AXIS2_PLACEMENT_3D('',#1001,#826,#827);
#672=AXIS2_PLACEMENT_3D('',#1002,#828,#829);
#673=AXIS2_PLACEMENT_3D('',#1003,#830,#831);
#674=AXIS2_PLACEMENT_3D('',#1005,#832,#833);
#675=AXIS2_PLACEMENT_3D('',#1006,#834,#835);
#676=AXIS2_PLACEMENT_3D('',#1007,#836,#837);
#677=AXIS2_PLACEMENT_3D('',#1009,#838,#839);
#678=AXIS2_PLACEMENT_3D('',#1010,#840,#841);
#679=AXIS2_PLACEMENT_3D('',#1011,#842,#843);
#680=AXIS2_PLACEMENT_3D('',#1013,#844,#845);
#681=AXIS2_PLACEMENT_3D('',#1014,#846,#847);
#682=AXIS2_PLACEMENT_3D('',#1015,#848,#849);
#683=AXIS2_PLACEMENT_3D('',#1017,#850,#851);
#684=DIRECTION('',(0.,0.,1.));
#685=DIRECTION('',(1.,0.,0.));
#686=DIRECTION('',(0.,0.,1.));
#687=DIRECTION('',(1.,0.,0.));
#688=DIRECTION('',(-1.,0.,0.));
#689=DIRECTION('',(0.,0.,-1.));
#690=DIRECTION('',(-1.,0.,0.));
#691=DIRECTION('',(0.,-1.,0.));
#692=DIRECTION('',(0.,0.,1.));
#693=DIRECTION('',(1.,0.,0.));
#694=DIRECTION('',(0.,-1.,0.));
#695=DIRECTION('',(0.,0.,-1.));
#696=DIRECTION('',(-1.,0.,0.));
#697=DIRECTION('',(-1.,0.,0.));
#698=DIRECTION('',(0.,0.,1.));
#699=DIRECTION('',(1.,0.,0.));
#700=DIRECTION('',(0.,0.,-1.));
#701=DIRECTION('',(-1.,0.,0.));
#702=DIRECTION('',(0.,0.,-1.));
#703=DIRECTION('',(-1.,0.,0.));
#704=DIRECTION('',(0.,-1.,0.));
#705=DIRECTION('',(0.,0.,-1.));
#706=DIRECTION('',(-1.,0.,0.));
#707=DIRECTION('',(-1.,0.,0.));
#708=DIRECTION('',(0.,-1.,0.));
#709=DIRECTION('',(-1.,-1.7347234759768E-16,0.));
#710=DIRECTION('',(0.,-1.,0.));
#711=DIRECTION('',(-1.,0.,0.));
#712=DIRECTION('',(0.,0.,-1.));
#713=DIRECTION('',(-1.,0.,0.));
#714=DIRECTION('',(0.,-1.,0.));
#715=DIRECTION('',(-1.,0.,0.));
#716=DIRECTION('',(0.,-1.,0.));
#717=DIRECTION('',(1.,0.,0.));
#718=DIRECTION('',(0.,-1.,0.));
#719=DIRECTION('',(1.,0.,0.));
#720=DIRECTION('',(0.,0.,1.));
#721=DIRECTION('',(1.,0.,0.));
#722=DIRECTION('',(0.,1.,0.));
#723=DIRECTION('',(0.,0.,1.));
#724=DIRECTION('',(-1.,0.,0.));
#725=DIRECTION('',(0.,0.,-1.));
#726=DIRECTION('',(1.,0.,0.));
#727=DIRECTION('',(0.,0.,-1.));
#728=DIRECTION('',(1.,0.,0.));
#729=DIRECTION('',(0.,0.,-1.));
#730=DIRECTION('',(0.,-0.707106781186548,-0.707106781186547));
#731=DIRECTION('',(0.,0.,-1.));
#732=DIRECTION('',(0.,-1.,0.));
#733=DIRECTION('',(0.,0.,-1.));
#734=DIRECTION('',(0.,-1.,0.));
#735=DIRECTION('',(0.,0.,-1.));
#736=DIRECTION('',(0.,1.,0.));
#737=DIRECTION('',(0.,0.,1.));
#738=DIRECTION('',(0.,1.,0.));
#739=DIRECTION('',(0.,0.,1.));
#740=DIRECTION('',(0.,1.,0.));
#741=DIRECTION('',(0.,0.,1.));
#742=DIRECTION('',(0.,1.,0.));
#743=DIRECTION('',(0.,0.,1.));
#744=DIRECTION('',(0.,1.,0.));
#745=DIRECTION('',(0.,0.,1.));
#746=DIRECTION('',(1.,0.,0.));
#747=DIRECTION('',(0.,0.,-1.));
#748=DIRECTION('',(1.,0.,0.));
#749=DIRECTION('',(1.,0.,0.));
#750=DIRECTION('',(0.,0.,-1.));
#751=DIRECTION('',(0.,-0.707106781186548,-0.707106781186547));
#752=DIRECTION('',(0.,-1.,0.));
#753=DIRECTION('',(0.,-1.,0.));
#754=DIRECTION('',(0.,0.,-1.));
#755=DIRECTION('',(0.,1.,0.));
#756=DIRECTION('',(0.,0.,1.));
#757=DIRECTION('',(1.,0.,0.));
#758=DIRECTION('',(0.,0.,-1.));
#759=DIRECTION('',(-1.,0.,0.));
#760=DIRECTION('',(0.,0.,1.));
#761=DIRECTION('',(1.,0.,0.));
#762=DIRECTION('',(0.,0.,1.));
#763=DIRECTION('',(1.,0.,0.));
#764=DIRECTION('',(0.,0.,1.));
#765=DIRECTION('',(1.,0.,0.));
#766=DIRECTION('',(0.,0.,1.));
#767=DIRECTION('',(1.,0.,0.));
#768=DIRECTION('',(0.,0.,1.));
#769=DIRECTION('',(1.,0.,0.));
#770=DIRECTION('',(0.,0.,1.));
#771=DIRECTION('',(1.,0.,0.));
#772=DIRECTION('',(-1.,0.,0.));
#773=DIRECTION('',(0.,0.,1.));
#774=DIRECTION('',(0.,0.,-1.));
#775=DIRECTION('',(0.,-0.707106781186548,-0.707106781186547));
#776=DIRECTION('',(0.,0.,-1.));
#777=DIRECTION('',(0.,1.,0.));
#778=DIRECTION('',(0.,1.,0.));
#779=DIRECTION('',(0.,0.,1.));
#780=DIRECTION('',(1.,0.,0.));
#781=DIRECTION('',(1.,0.,0.));
#782=DIRECTION('',(-1.,0.,0.));
#783=DIRECTION('',(0.,0.,1.));
#784=DIRECTION('',(0.,0.,-1.));
#785=DIRECTION('',(0.,1.,0.));
#786=DIRECTION('',(0.,-0.707106781186548,-0.707106781186547));
#787=DIRECTION('',(0.,1.,0.));
#788=DIRECTION('',(0.,0.,1.));
#789=DIRECTION('',(0.,1.,0.));
#790=DIRECTION('',(0.,0.,1.));
#791=DIRECTION('',(0.,1.,0.));
#792=DIRECTION('',(0.,0.,1.));
#793=DIRECTION('',(0.,0.,-1.));
#794=DIRECTION('',(1.,0.,0.));
#795=DIRECTION('',(-1.,0.,0.));
#796=DIRECTION('',(0.,0.,1.));
#797=DIRECTION('',(0.,0.,-1.));
#798=DIRECTION('',(0.,1.,0.));
#799=DIRECTION('',(-1.7347234759768E-16,1.,0.));
#800=DIRECTION('',(-1.,-1.7347234759768E-16,0.));
#801=DIRECTION('',(0.,0.,-1.));
#802=DIRECTION('',(1.,1.7347234759768E-16,0.));
#803=DIRECTION('',(-1.,0.,0.));
#804=DIRECTION('',(0.,0.,1.));
#805=DIRECTION('',(0.,0.,-1.));
#806=DIRECTION('',(0.,1.,0.));
#807=DIRECTION('',(0.,1.,0.));
#808=DIRECTION('',(0.,0.,1.));
#809=DIRECTION('',(0.,1.,0.));
#810=DIRECTION('',(0.,0.,1.));
#811=DIRECTION('',(0.,1.,0.));
#812=DIRECTION('',(0.,0.,1.));
#813=DIRECTION('',(1.,0.,0.));
#814=DIRECTION('',(0.,0.,1.));
#815=DIRECTION('',(1.,0.,0.));
#816=DIRECTION('',(0.,-1.,0.));
#817=DIRECTION('',(0.,0.,-1.));
#818=DIRECTION('',(0.,-1.,0.));
#819=DIRECTION('',(0.,0.,-1.));
#820=DIRECTION('',(0.,-1.,0.));
#821=DIRECTION('',(0.,0.,-1.));
#822=DIRECTION('',(0.,-1.,0.));
#823=DIRECTION('',(0.,0.,-1.));
#824=DIRECTION('',(0.,0.707106781186547,-0.707106781186548));
#825=DIRECTION('',(0.,0.707106781186548,0.707106781186547));
#826=DIRECTION('',(0.,-0.707106781186547,0.707106781186548));
#827=DIRECTION('',(0.,-0.707106781186548,-0.707106781186547));
#828=DIRECTION('',(0.,0.,-1.));
#829=DIRECTION('',(-1.,0.,0.));
#830=DIRECTION('',(0.,0.,-1.));
#831=DIRECTION('',(-1.,0.,0.));
#832=DIRECTION('',(0.,0.,1.));
#833=DIRECTION('',(1.,0.,0.));
#834=DIRECTION('',(0.,0.,-1.));
#835=DIRECTION('',(-1.,0.,0.));
#836=DIRECTION('',(0.,0.,-1.));
#837=DIRECTION('',(-1.,0.,0.));
#838=DIRECTION('',(0.,0.,1.));
#839=DIRECTION('',(1.,0.,0.));
#840=DIRECTION('',(0.,0.,-1.));
#841=DIRECTION('',(-1.,0.,0.));
#842=DIRECTION('',(0.,0.,-1.));
#843=DIRECTION('',(-1.,0.,0.));
#844=DIRECTION('',(0.,0.,1.));
#845=DIRECTION('',(1.,0.,0.));
#846=DIRECTION('',(0.,0.,-1.));
#847=DIRECTION('',(-1.,0.,0.));
#848=DIRECTION('',(0.,0.,-1.));
#849=DIRECTION('',(-1.,0.,0.));
#850=DIRECTION('',(0.,0.,1.));
#851=DIRECTION('',(1.,0.,0.));
#852=CARTESIAN_POINT('',(0.,0.,0.));
#853=CARTESIAN_POINT('',(0.,0.,0.003));
#854=CARTESIAN_POINT('',(0.,0.016,0.003));
#855=CARTESIAN_POINT('',(0.016,0.016,0.003));
#856=CARTESIAN_POINT('',(0.013,0.016,0.003));
#857=CARTESIAN_POINT('',(0.013,0.013,0.003));
#858=CARTESIAN_POINT('',(0.016,0.013,0.003));
#859=CARTESIAN_POINT('',(0.016,0.,0.003));
#860=CARTESIAN_POINT('',(0.,0.,0.003));
#861=CARTESIAN_POINT('',(-0.016,0.,0.003));
#862=CARTESIAN_POINT('',(-0.016,0.016,0.003));
#863=CARTESIAN_POINT('',(-0.016,0.013,0.003));
#864=CARTESIAN_POINT('',(-0.013,0.013,0.003));
#865=CARTESIAN_POINT('',(-0.013,0.016,0.003));
#866=CARTESIAN_POINT('',(0.,0.016,0.003));
#867=CARTESIAN_POINT('',(0.,0.,0.003));
#868=CARTESIAN_POINT('',(-0.013,-0.013,0.003));
#869=CARTESIAN_POINT('',(-0.016,-0.013,0.003));
#870=CARTESIAN_POINT('',(0.013,-0.013,0.003));
#871=CARTESIAN_POINT('',(0.01,-0.013,0.003));
#872=CARTESIAN_POINT('',(0.016,0.,0.003));
#873=CARTESIAN_POINT('',(0.016,0.00485,0.003));
#874=CARTESIAN_POINT('',(0.013,0.013,0.003));
#875=CARTESIAN_POINT('',(0.,0.016,0.003));
#876=CARTESIAN_POINT('',(0.01,0.016,0.003));
#877=CARTESIAN_POINT('',(0.01,0.,0.003));
#878=CARTESIAN_POINT('',(0.01,0.01485,0.003));
#879=CARTESIAN_POINT('',(-2.57606436182556E-18,0.01485,0.003));
#880=CARTESIAN_POINT('',(-0.01,0.01485,0.003));
#881=CARTESIAN_POINT('',(-0.01,0.,0.003));
#882=CARTESIAN_POINT('',(-0.01,0.016,0.003));
#883=CARTESIAN_POINT('',(0.,0.016,0.003));
#884=CARTESIAN_POINT('',(-0.013,0.013,0.003));
#885=CARTESIAN_POINT('',(-0.016,0.,0.003));
#886=CARTESIAN_POINT('',(-0.016,0.00485,0.003));
#887=CARTESIAN_POINT('',(-0.016,0.00485,0.003));
#888=CARTESIAN_POINT('',(-0.0175,0.00485,0.003));
#889=CARTESIAN_POINT('',(-0.0175,-0.001325,0.003));
#890=CARTESIAN_POINT('',(-0.0175,-0.0175,0.003));
#891=CARTESIAN_POINT('',(0.,-0.0175,0.003));
#892=CARTESIAN_POINT('',(0.0175,-0.0175,0.003));
#893=CARTESIAN_POINT('',(0.0175,-0.001325,0.003));
#894=CARTESIAN_POINT('',(0.0175,0.00485,0.003));
#895=CARTESIAN_POINT('',(0.016,0.00485,0.003));
#896=CARTESIAN_POINT('',(0.,8.87868929381831E-19,0.003));
#897=CARTESIAN_POINT('',(0.0145,8.87868929381831E-19,0.003));
#898=CARTESIAN_POINT('',(-0.01675,0.01485,0.034));
#899=CARTESIAN_POINT('',(-0.016,0.01485,0.013));
#900=CARTESIAN_POINT('',(-0.016,0.01485,0.013));
#901=CARTESIAN_POINT('',(-0.0175,0.01485,0.013));
#902=CARTESIAN_POINT('',(-0.016,0.01485,0.034));
#903=CARTESIAN_POINT('',(-0.016,0.01485,0.034));
#904=CARTESIAN_POINT('',(-0.01675,0.01485,0.034));
#905=CARTESIAN_POINT('',(-0.0175,0.01485,0.034));
#906=CARTESIAN_POINT('',(-0.0175,0.01485,0.034));
#907=CARTESIAN_POINT('',(0.0175,-0.001325,0.003));
#908=CARTESIAN_POINT('',(0.0175,0.00985,0.008));
#909=CARTESIAN_POINT('',(0.0175,0.01485,0.013));
#910=CARTESIAN_POINT('',(0.0175,-0.0175,0.003));
#911=CARTESIAN_POINT('',(0.0175,-0.0175,0.));
#912=CARTESIAN_POINT('',(0.0175,-0.001325,0.));
#913=CARTESIAN_POINT('',(0.0175,0.0175,0.));
#914=CARTESIAN_POINT('',(0.0175,0.0175,0.003));
#915=CARTESIAN_POINT('',(0.0175,0.0175,0.034));
#916=CARTESIAN_POINT('',(0.0175,0.016175,0.034));
#917=CARTESIAN_POINT('',(0.0175,0.01485,0.034));
#918=CARTESIAN_POINT('',(0.0175,0.01485,0.034));
#919=CARTESIAN_POINT('',(0.,0.0175,0.003));
#920=CARTESIAN_POINT('',(0.013,0.0175,0.0225));
#921=CARTESIAN_POINT('',(0.013,0.0175,0.02425));
#922=CARTESIAN_POINT('',(0.013,0.0175,0.0065));
#923=CARTESIAN_POINT('',(0.013,0.0175,0.00825));
#924=CARTESIAN_POINT('',(-0.013,0.0175,0.0065));
#925=CARTESIAN_POINT('',(-0.013,0.0175,0.00825));
#926=CARTESIAN_POINT('',(-0.013,0.0175,0.0225));
#927=CARTESIAN_POINT('',(-0.013,0.0175,0.02425));
#928=CARTESIAN_POINT('',(0.,0.0175,0.));
#929=CARTESIAN_POINT('',(-0.0175,0.0175,0.));
#930=CARTESIAN_POINT('',(-0.0175,0.0175,0.003));
#931=CARTESIAN_POINT('',(-0.0175,0.0175,0.034));
#932=CARTESIAN_POINT('',(0.,0.0175,0.034));
#933=CARTESIAN_POINT('',(-0.0175,-0.001325,0.003));
#934=CARTESIAN_POINT('',(-0.0175,0.00985,0.008));
#935=CARTESIAN_POINT('',(-0.0175,0.016175,0.034));
#936=CARTESIAN_POINT('',(-0.0175,-0.001325,0.));
#937=CARTESIAN_POINT('',(-0.0175,-0.0175,0.));
#938=CARTESIAN_POINT('',(-0.0175,-0.0175,0.003));
#939=CARTESIAN_POINT('',(0.,-0.0175,0.003));
#940=CARTESIAN_POINT('',(0.,-0.0175,0.));
#941=CARTESIAN_POINT('',(0.,8.87868929381831E-19,0.003));
#942=CARTESIAN_POINT('',(0.,8.87868929381831E-19,0.));
#943=CARTESIAN_POINT('',(0.0145,8.87868929381831E-19,0.));
#944=CARTESIAN_POINT('',(0.,0.,0.));
#945=CARTESIAN_POINT('',(0.013,0.013,0.));
#946=CARTESIAN_POINT('',(0.0147,0.013,0.));
#947=CARTESIAN_POINT('',(-0.013,0.013,0.));
#948=CARTESIAN_POINT('',(-0.0113,0.013,0.));
#949=CARTESIAN_POINT('',(-0.013,-0.013,0.));
#950=CARTESIAN_POINT('',(-0.0113,-0.013,0.));
#951=CARTESIAN_POINT('',(0.013,-0.013,0.));
#952=CARTESIAN_POINT('',(0.0147,-0.013,0.));
#953=CARTESIAN_POINT('',(0.016,0.015425,0.034));
#954=CARTESIAN_POINT('',(0.016,0.016,0.034));
#955=CARTESIAN_POINT('',(0.016,0.016,0.034));
#956=CARTESIAN_POINT('',(0.016,0.00985,0.008));
#957=CARTESIAN_POINT('',(0.016,0.01485,0.013));
#958=CARTESIAN_POINT('',(0.016,0.01485,0.034));
#959=CARTESIAN_POINT('',(0.016,0.01485,0.034));
#960=CARTESIAN_POINT('',(0.016,0.015425,0.034));
#961=CARTESIAN_POINT('',(0.01675,0.01485,0.034));
#962=CARTESIAN_POINT('',(0.016,0.01485,0.013));
#963=CARTESIAN_POINT('',(0.01675,0.01485,0.034));
#964=CARTESIAN_POINT('',(-0.016,0.015425,0.034));
#965=CARTESIAN_POINT('',(-0.016,0.016,0.034));
#966=CARTESIAN_POINT('',(-0.016,0.016,0.034));
#967=CARTESIAN_POINT('',(-0.016,0.015425,0.034));
#968=CARTESIAN_POINT('',(-0.016,0.00985,0.008));
#969=CARTESIAN_POINT('',(-0.0145,0.016,0.034));
#970=CARTESIAN_POINT('',(-0.013,0.016,0.0065));
#971=CARTESIAN_POINT('',(-0.013,0.016,0.00825));
#972=CARTESIAN_POINT('',(-0.013,0.016,0.0225));
#973=CARTESIAN_POINT('',(-0.013,0.016,0.02425));
#974=CARTESIAN_POINT('',(-0.01,0.016,0.034));
#975=CARTESIAN_POINT('',(-0.01,0.016,0.034));
#976=CARTESIAN_POINT('',(-0.0145,0.016,0.034));
#977=CARTESIAN_POINT('',(-0.01,0.015425,0.034));
#978=CARTESIAN_POINT('',(-0.01,0.01485,0.034));
#979=CARTESIAN_POINT('',(-0.01,0.01485,0.034));
#980=CARTESIAN_POINT('',(-0.01,0.015425,0.034));
#981=CARTESIAN_POINT('',(-1.7347234759768E-18,0.01485,0.034));
#982=CARTESIAN_POINT('',(0.01,0.01485,0.034));
#983=CARTESIAN_POINT('',(0.01,0.01485,0.034));
#984=CARTESIAN_POINT('',(-1.7347234759768E-18,0.01485,0.034));
#985=CARTESIAN_POINT('',(0.01,0.015425,0.034));
#986=CARTESIAN_POINT('',(0.01,0.016,0.034));
#987=CARTESIAN_POINT('',(0.01,0.016,0.034));
#988=CARTESIAN_POINT('',(0.01,0.015425,0.034));
#989=CARTESIAN_POINT('',(0.0115,0.016,0.034));
#990=CARTESIAN_POINT('',(0.013,0.016,0.0225));
#991=CARTESIAN_POINT('',(0.013,0.016,0.02425));
#992=CARTESIAN_POINT('',(0.013,0.016,0.0065));
#993=CARTESIAN_POINT('',(0.013,0.016,0.00825));
#994=CARTESIAN_POINT('',(0.0115,0.016,0.034));
#995=CARTESIAN_POINT('',(0.,0.,0.034));
#996=CARTESIAN_POINT('',(0.013,0.03985,0.0065));
#997=CARTESIAN_POINT('',(0.013,0.03985,0.0225));
#998=CARTESIAN_POINT('',(-0.013,0.03985,0.0225));
#999=CARTESIAN_POINT('',(-0.013,0.03985,0.0065));
#1000=CARTESIAN_POINT('',(-0.016,0.00985,0.008));
#1001=CARTESIAN_POINT('',(0.016,0.00985,0.008));
#1002=CARTESIAN_POINT('',(0.013,-0.013,0.003));
#1003=CARTESIAN_POINT('',(0.013,-0.013,0.0017));
#1004=CARTESIAN_POINT('',(0.0113,-0.013,0.0017));
#1005=CARTESIAN_POINT('',(0.013,-0.013,0.003));
#1006=CARTESIAN_POINT('',(-0.013,-0.013,0.003));
#1007=CARTESIAN_POINT('',(-0.013,-0.013,0.0017));
#1008=CARTESIAN_POINT('',(-0.0147,-0.013,0.0017));
#1009=CARTESIAN_POINT('',(-0.013,-0.013,0.003));
#1010=CARTESIAN_POINT('',(-0.013,0.013,0.003));
#1011=CARTESIAN_POINT('',(-0.013,0.013,0.0017));
#1012=CARTESIAN_POINT('',(-0.0147,0.013,0.0017));
#1013=CARTESIAN_POINT('',(-0.013,0.013,0.003));
#1014=CARTESIAN_POINT('',(0.013,0.013,0.003));
#1015=CARTESIAN_POINT('',(0.013,0.013,0.0017));
#1016=CARTESIAN_POINT('',(0.0113,0.013,0.0017));
#1017=CARTESIAN_POINT('',(0.013,0.013,0.003));
#1018=MECHANICAL_DESIGN_GEOMETRIC_PRESENTATION_REPRESENTATION('',(#615),
#1019);
#1019=(
GEOMETRIC_REPRESENTATION_CONTEXT(3)
GLOBAL_UNCERTAINTY_ASSIGNED_CONTEXT((#1020))
GLOBAL_UNIT_ASSIGNED_CONTEXT((#1023,#1022,#1021))
REPRESENTATION_CONTEXT('Part 1','TOP_LEVEL_ASSEMBLY_PART')
);
#1020=UNCERTAINTY_MEASURE_WITH_UNIT(LENGTH_MEASURE(1.E-8),#1023,
'DISTANCE_ACCURACY_VALUE','Maximum Tolerance applied to model');
#1021=(
NAMED_UNIT(*)
SI_UNIT($,.STERADIAN.)
SOLID_ANGLE_UNIT()
);
#1022=(
NAMED_UNIT(*)
PLANE_ANGLE_UNIT()
SI_UNIT($,.RADIAN.)
);
#1023=(
LENGTH_UNIT()
NAMED_UNIT(*)
SI_UNIT($,.METRE.)
);
#1024=PRODUCT_DEFINITION_SHAPE('','',#1025);
#1025=PRODUCT_DEFINITION('','',#1027,#1026);
#1026=PRODUCT_DEFINITION_CONTEXT('',#1033,'design');
#1027=PRODUCT_DEFINITION_FORMATION_WITH_SPECIFIED_SOURCE('','',#1029,
 .NOT_KNOWN.);
#1028=PRODUCT_RELATED_PRODUCT_CATEGORY('','',(#1029));
#1029=PRODUCT('Part 1','Part 1','Part 1',(#1031));
#1030=PRODUCT_CATEGORY('','');
#1031=PRODUCT_CONTEXT('',#1033,'mechanical');
#1032=APPLICATION_PROTOCOL_DEFINITION('international standard',
'ap242_managed_model_based_3d_engineering',2020,#1033);
#1033=APPLICATION_CONTEXT('managed model based 3d engineering');
ENDSEC;
END-ISO-10303-21;
