ISO-10303-21;
HEADER;
/* Generated by software containing ST-Developer
 * from STEP Tools, Inc. (www.steptools.com) 
 */
/* OPTION: using custom renumber hook */

FILE_DESCRIPTION(
/* description */ ('STEP AP242 Edition 2',
'CAx-IF Rec.Pracs.---Representation and Presentation of Product Manufa
cturing Information (PMI)---4.0---2014-10-13',
'CAx-IF Rec.Pracs.---3D Tessellated Geometry---0.4---2014-09-14','2;1',
'CAx-IF Rec.Pracs.---User Defined Attributes---1.5---2016-08-15'),
/* implementation_level */ '2;1');

FILE_NAME(
/* name */ 'Nema 11 Motor Mount - Part 1',
/* time_stamp */ '2026-08-11T01:17:00Z',
/* author */ (''),
/* organization */ (''),
/* preprocessor_version */ 'ST-DEVELOPER v20',
/* originating_system */ 'ONSHAPE BY PTC INC, 1.219',
/* authorisation */ '  ');

FILE_SCHEMA (('AP242_MANAGED_MODEL_BASED_3D_ENGINEERING_MIM_LF { 1 0 10303 442 3 1 4 }'));
ENDSEC;

DATA;
#10=SHAPE_REPRESENTATION_RELATIONSHIP('','',#723,#11);
#11=ADVANCED_BREP_SHAPE_REPRESENTATION('',(#721),#1207);
#12=CONICAL_SURFACE('',#765,0.00275,0.785398163397449);
#13=CONICAL_SURFACE('',#770,0.00275,0.785398163397449);
#14=CONICAL_SURFACE('',#772,0.00275,0.785398163397449);
#15=CONICAL_SURFACE('',#775,0.00275,0.785398163397449);
#16=CYLINDRICAL_SURFACE('',#750,0.011);
#17=CYLINDRICAL_SURFACE('',#758,0.00175);
#18=CYLINDRICAL_SURFACE('',#759,0.00175);
#19=CYLINDRICAL_SURFACE('',#760,0.00175);
#20=CYLINDRICAL_SURFACE('',#761,0.00175);
#21=CYLINDRICAL_SURFACE('',#767,0.00145);
#22=CYLINDRICAL_SURFACE('',#768,0.00145);
#23=CYLINDRICAL_SURFACE('',#774,0.00145);
#24=CYLINDRICAL_SURFACE('',#777,0.00145);
#25=B_SPLINE_CURVE_WITH_KNOTS('',3,(#1008,#1009,#1010,#1011,#1012,#1013,
#1014),.UNSPECIFIED.,.F.,.F.,(4,1,1,1,4),(0.0068785127735716,0.00789232048563367,
0.00890612819769574,0.00991993590975781,0.0109337436218199),
 .UNSPECIFIED.);
#26=B_SPLINE_CURVE_WITH_KNOTS('',3,(#1026,#1027,#1028,#1029,#1030,#1031,
#1032),.UNSPECIFIED.,.F.,.F.,(4,1,1,1,4),(0.00858150063285304,0.00959773960824964,
0.0106139785836462,0.0116302175590428,0.0126464565344394),.UNSPECIFIED.);
#27=B_SPLINE_CURVE_WITH_KNOTS('',3,(#1095,#1096,#1097,#1098,#1099),
 .UNSPECIFIED.,.F.,.F.,(4,1,4),(0.00858150063285302,0.00975762212733645,
0.0109337436218199),.UNSPECIFIED.);
#28=B_SPLINE_CURVE_WITH_KNOTS('',3,(#1104,#1105,#1106,#1107,#1108),
 .UNSPECIFIED.,.F.,.F.,(4,1,4),(0.00858150063285304,0.00975762212733648,
0.0109337436218199),.UNSPECIFIED.);
#29=B_SPLINE_CURVE_WITH_KNOTS('',3,(#1115,#1116,#1117,#1118,#1119),
 .UNSPECIFIED.,.F.,.F.,(4,1,4),(0.00858150063285302,0.00975762212733646,
0.0109337436218199),.UNSPECIFIED.);
#30=B_SPLINE_CURVE_WITH_KNOTS('',3,(#1120,#1121,#1122,#1123,#1124),
 .UNSPECIFIED.,.F.,.F.,(4,1,4),(0.00858150063285304,0.00975762212733648,
0.0109337436218199),.UNSPECIFIED.);
#31=B_SPLINE_CURVE_WITH_KNOTS('',3,(#1134,#1135,#1136,#1137,#1138),
 .UNSPECIFIED.,.F.,.F.,(4,1,4),(0.00858150063285303,0.00975762212733647,
0.0109337436218199),.UNSPECIFIED.);
#32=B_SPLINE_CURVE_WITH_KNOTS('',3,(#1142,#1143,#1144,#1145,#1146),
 .UNSPECIFIED.,.F.,.F.,(4,1,4),(0.00858150063285306,0.00975762212733648,
0.0109337436218199),.UNSPECIFIED.);
#33=B_SPLINE_CURVE_WITH_KNOTS('',3,(#1175,#1176,#1177,#1178),
 .UNSPECIFIED.,.F.,.F.,(4,4),(-0.00143527842851154,0.00124579507738264),
 .UNSPECIFIED.);
#34=B_SPLINE_CURVE_WITH_KNOTS('',3,(#1184,#1185,#1186,#1187),
 .UNSPECIFIED.,.F.,.F.,(4,4),(-0.00123248135871205,0.00142499479380373),
 .UNSPECIFIED.);
#35=LINE('',#974,#95);
#36=LINE('',#977,#96);
#37=LINE('',#979,#97);
#38=LINE('',#981,#98);
#39=LINE('',#983,#99);
#40=LINE('',#985,#100);
#41=LINE('',#987,#101);
#42=LINE('',#989,#102);
#43=LINE('',#991,#103);
#44=LINE('',#993,#104);
#45=LINE('',#995,#105);
#46=LINE('',#997,#106);
#47=LINE('',#999,#107);
#48=LINE('',#1001,#108);
#49=LINE('',#1003,#109);
#50=LINE('',#1006,#110);
#51=LINE('',#1016,#111);
#52=LINE('',#1018,#112);
#53=LINE('',#1020,#113);
#54=LINE('',#1022,#114);
#55=LINE('',#1024,#115);
#56=LINE('',#1034,#116);
#57=LINE('',#1036,#117);
#58=LINE('',#1038,#118);
#59=LINE('',#1040,#119);
#60=LINE('',#1042,#120);
#61=LINE('',#1052,#121);
#62=LINE('',#1057,#122);
#63=LINE('',#1059,#123);
#64=LINE('',#1062,#124);
#65=LINE('',#1064,#125);
#66=LINE('',#1066,#126);
#67=LINE('',#1071,#127);
#68=LINE('',#1073,#128);
#69=LINE('',#1075,#129);
#70=LINE('',#1077,#130);
#71=LINE('',#1079,#131);
#72=LINE('',#1083,#132);
#73=LINE('',#1087,#133);
#74=LINE('',#1091,#134);
#75=LINE('',#1101,#135);
#76=LINE('',#1102,#136);
#77=LINE('',#1103,#137);
#78=LINE('',#1109,#138);
#79=LINE('',#1111,#139);
#80=LINE('',#1113,#140);
#81=LINE('',#1126,#141);
#82=LINE('',#1127,#142);
#83=LINE('',#1129,#143);
#84=LINE('',#1131,#144);
#85=LINE('',#1132,#145);
#86=LINE('',#1133,#146);
#87=LINE('',#1139,#147);
#88=LINE('',#1140,#148);
#89=LINE('',#1167,#149);
#90=LINE('',#1168,#150);
#91=LINE('',#1170,#151);
#92=LINE('',#1199,#152);
#93=LINE('',#1200,#153);
#94=LINE('',#1203,#154);
#95=VECTOR('',#796,1.);
#96=VECTOR('',#797,1.);
#97=VECTOR('',#798,1.);
#98=VECTOR('',#799,1.);
#99=VECTOR('',#800,1.);
#100=VECTOR('',#801,1.);
#101=VECTOR('',#802,1.);
#102=VECTOR('',#803,1.);
#103=VECTOR('',#804,1.);
#104=VECTOR('',#805,1.);
#105=VECTOR('',#806,1.);
#106=VECTOR('',#807,1.);
#107=VECTOR('',#808,1.);
#108=VECTOR('',#809,1.);
#109=VECTOR('',#812,1.);
#110=VECTOR('',#813,1.);
#111=VECTOR('',#814,1.);
#112=VECTOR('',#815,1.);
#113=VECTOR('',#816,1.);
#114=VECTOR('',#817,1.);
#115=VECTOR('',#818,1.);
#116=VECTOR('',#819,1.);
#117=VECTOR('',#820,1.);
#118=VECTOR('',#821,1.);
#119=VECTOR('',#822,1.);
#120=VECTOR('',#823,1.);
#121=VECTOR('',#834,1.);
#122=VECTOR('',#837,1.);
#123=VECTOR('',#840,1.);
#124=VECTOR('',#841,1.);
#125=VECTOR('',#842,1.);
#126=VECTOR('',#843,1.);
#127=VECTOR('',#848,1.);
#128=VECTOR('',#849,1.);
#129=VECTOR('',#850,1.);
#130=VECTOR('',#851,1.);
#131=VECTOR('',#852,1.);
#132=VECTOR('',#855,1.);
#133=VECTOR('',#858,1.);
#134=VECTOR('',#863,1.);
#135=VECTOR('',#868,1.);
#136=VECTOR('',#869,1.);
#137=VECTOR('',#870,1.);
#138=VECTOR('',#871,1.);
#139=VECTOR('',#872,1.);
#140=VECTOR('',#873,1.);
#141=VECTOR('',#876,1.);
#142=VECTOR('',#877,1.);
#143=VECTOR('',#878,1.);
#144=VECTOR('',#881,1.);
#145=VECTOR('',#882,1.);
#146=VECTOR('',#883,1.);
#147=VECTOR('',#884,1.);
#148=VECTOR('',#885,1.);
#149=VECTOR('',#916,1.);
#150=VECTOR('',#917,1.);
#151=VECTOR('',#920,1.);
#152=VECTOR('',#953,1.);
#153=VECTOR('',#954,1.);
#154=VECTOR('',#959,1.);
#155=ORIENTED_EDGE('',*,*,#347,.F.);
#156=ORIENTED_EDGE('',*,*,#348,.F.);
#157=ORIENTED_EDGE('',*,*,#349,.F.);
#158=ORIENTED_EDGE('',*,*,#350,.F.);
#159=ORIENTED_EDGE('',*,*,#351,.T.);
#160=ORIENTED_EDGE('',*,*,#352,.T.);
#161=ORIENTED_EDGE('',*,*,#353,.F.);
#162=ORIENTED_EDGE('',*,*,#354,.T.);
#163=ORIENTED_EDGE('',*,*,#355,.F.);
#164=ORIENTED_EDGE('',*,*,#356,.F.);
#165=ORIENTED_EDGE('',*,*,#357,.T.);
#166=ORIENTED_EDGE('',*,*,#358,.F.);
#167=ORIENTED_EDGE('',*,*,#359,.T.);
#168=ORIENTED_EDGE('',*,*,#360,.F.);
#169=ORIENTED_EDGE('',*,*,#361,.T.);
#170=ORIENTED_EDGE('',*,*,#362,.T.);
#171=ORIENTED_EDGE('',*,*,#363,.F.);
#172=ORIENTED_EDGE('',*,*,#364,.T.);
#173=ORIENTED_EDGE('',*,*,#365,.F.);
#174=ORIENTED_EDGE('',*,*,#366,.T.);
#175=ORIENTED_EDGE('',*,*,#367,.T.);
#176=ORIENTED_EDGE('',*,*,#368,.T.);
#177=ORIENTED_EDGE('',*,*,#369,.T.);
#178=ORIENTED_EDGE('',*,*,#370,.F.);
#179=ORIENTED_EDGE('',*,*,#371,.F.);
#180=ORIENTED_EDGE('',*,*,#372,.F.);
#181=ORIENTED_EDGE('',*,*,#373,.T.);
#182=ORIENTED_EDGE('',*,*,#374,.T.);
#183=ORIENTED_EDGE('',*,*,#375,.T.);
#184=ORIENTED_EDGE('',*,*,#376,.F.);
#185=ORIENTED_EDGE('',*,*,#377,.T.);
#186=ORIENTED_EDGE('',*,*,#378,.T.);
#187=ORIENTED_EDGE('',*,*,#379,.F.);
#188=ORIENTED_EDGE('',*,*,#380,.F.);
#189=ORIENTED_EDGE('',*,*,#381,.F.);
#190=ORIENTED_EDGE('',*,*,#382,.F.);
#191=ORIENTED_EDGE('',*,*,#383,.F.);
#192=ORIENTED_EDGE('',*,*,#384,.T.);
#193=ORIENTED_EDGE('',*,*,#385,.T.);
#194=ORIENTED_EDGE('',*,*,#386,.F.);
#195=ORIENTED_EDGE('',*,*,#387,.F.);
#196=ORIENTED_EDGE('',*,*,#388,.T.);
#197=ORIENTED_EDGE('',*,*,#389,.F.);
#198=ORIENTED_EDGE('',*,*,#390,.T.);
#199=ORIENTED_EDGE('',*,*,#363,.T.);
#200=ORIENTED_EDGE('',*,*,#391,.T.);
#201=ORIENTED_EDGE('',*,*,#392,.T.);
#202=ORIENTED_EDGE('',*,*,#393,.F.);
#203=ORIENTED_EDGE('',*,*,#394,.T.);
#204=ORIENTED_EDGE('',*,*,#395,.T.);
#205=ORIENTED_EDGE('',*,*,#396,.T.);
#206=ORIENTED_EDGE('',*,*,#397,.T.);
#207=ORIENTED_EDGE('',*,*,#398,.T.);
#208=ORIENTED_EDGE('',*,*,#399,.T.);
#209=ORIENTED_EDGE('',*,*,#400,.F.);
#210=ORIENTED_EDGE('',*,*,#401,.F.);
#211=ORIENTED_EDGE('',*,*,#402,.T.);
#212=ORIENTED_EDGE('',*,*,#403,.T.);
#213=ORIENTED_EDGE('',*,*,#372,.T.);
#214=ORIENTED_EDGE('',*,*,#404,.F.);
#215=ORIENTED_EDGE('',*,*,#396,.F.);
#216=ORIENTED_EDGE('',*,*,#405,.T.);
#217=ORIENTED_EDGE('',*,*,#357,.F.);
#218=ORIENTED_EDGE('',*,*,#406,.F.);
#219=ORIENTED_EDGE('',*,*,#376,.T.);
#220=ORIENTED_EDGE('',*,*,#407,.T.);
#221=ORIENTED_EDGE('',*,*,#392,.F.);
#222=ORIENTED_EDGE('',*,*,#408,.F.);
#223=ORIENTED_EDGE('',*,*,#402,.F.);
#224=ORIENTED_EDGE('',*,*,#371,.T.);
#225=ORIENTED_EDGE('',*,*,#409,.T.);
#226=ORIENTED_EDGE('',*,*,#410,.F.);
#227=ORIENTED_EDGE('',*,*,#411,.F.);
#228=ORIENTED_EDGE('',*,*,#412,.F.);
#229=ORIENTED_EDGE('',*,*,#398,.F.);
#230=ORIENTED_EDGE('',*,*,#413,.F.);
#231=ORIENTED_EDGE('',*,*,#414,.F.);
#232=ORIENTED_EDGE('',*,*,#410,.T.);
#233=ORIENTED_EDGE('',*,*,#415,.T.);
#234=ORIENTED_EDGE('',*,*,#416,.F.);
#235=ORIENTED_EDGE('',*,*,#385,.F.);
#236=ORIENTED_EDGE('',*,*,#417,.F.);
#237=ORIENTED_EDGE('',*,*,#378,.F.);
#238=ORIENTED_EDGE('',*,*,#418,.T.);
#239=ORIENTED_EDGE('',*,*,#355,.T.);
#240=ORIENTED_EDGE('',*,*,#419,.F.);
#241=ORIENTED_EDGE('',*,*,#400,.T.);
#242=ORIENTED_EDGE('',*,*,#420,.T.);
#243=ORIENTED_EDGE('',*,*,#383,.T.);
#244=ORIENTED_EDGE('',*,*,#416,.T.);
#245=ORIENTED_EDGE('',*,*,#421,.F.);
#246=ORIENTED_EDGE('',*,*,#369,.F.);
#247=ORIENTED_EDGE('',*,*,#422,.T.);
#248=ORIENTED_EDGE('',*,*,#423,.T.);
#249=ORIENTED_EDGE('',*,*,#389,.T.);
#250=ORIENTED_EDGE('',*,*,#414,.T.);
#251=ORIENTED_EDGE('',*,*,#424,.T.);
#252=ORIENTED_EDGE('',*,*,#411,.T.);
#253=ORIENTED_EDGE('',*,*,#401,.T.);
#254=ORIENTED_EDGE('',*,*,#425,.F.);
#255=ORIENTED_EDGE('',*,*,#426,.F.);
#256=ORIENTED_EDGE('',*,*,#427,.F.);
#257=ORIENTED_EDGE('',*,*,#428,.F.);
#258=ORIENTED_EDGE('',*,*,#429,.F.);
#259=ORIENTED_EDGE('',*,*,#415,.F.);
#260=ORIENTED_EDGE('',*,*,#409,.F.);
#261=ORIENTED_EDGE('',*,*,#370,.T.);
#262=ORIENTED_EDGE('',*,*,#421,.T.);
#263=ORIENTED_EDGE('',*,*,#425,.T.);
#264=ORIENTED_EDGE('',*,*,#377,.F.);
#265=ORIENTED_EDGE('',*,*,#406,.T.);
#266=ORIENTED_EDGE('',*,*,#356,.T.);
#267=ORIENTED_EDGE('',*,*,#418,.F.);
#268=ORIENTED_EDGE('',*,*,#382,.T.);
#269=ORIENTED_EDGE('',*,*,#347,.T.);
#270=ORIENTED_EDGE('',*,*,#381,.T.);
#271=ORIENTED_EDGE('',*,*,#348,.T.);
#272=ORIENTED_EDGE('',*,*,#380,.T.);
#273=ORIENTED_EDGE('',*,*,#349,.T.);
#274=ORIENTED_EDGE('',*,*,#379,.T.);
#275=ORIENTED_EDGE('',*,*,#350,.T.);
#276=ORIENTED_EDGE('',*,*,#360,.T.);
#277=ORIENTED_EDGE('',*,*,#430,.T.);
#278=ORIENTED_EDGE('',*,*,#393,.T.);
#279=ORIENTED_EDGE('',*,*,#407,.F.);
#280=ORIENTED_EDGE('',*,*,#375,.F.);
#281=ORIENTED_EDGE('',*,*,#431,.T.);
#282=ORIENTED_EDGE('',*,*,#405,.F.);
#283=ORIENTED_EDGE('',*,*,#395,.F.);
#284=ORIENTED_EDGE('',*,*,#432,.T.);
#285=ORIENTED_EDGE('',*,*,#358,.T.);
#286=ORIENTED_EDGE('',*,*,#359,.F.);
#287=ORIENTED_EDGE('',*,*,#432,.F.);
#288=ORIENTED_EDGE('',*,*,#394,.F.);
#289=ORIENTED_EDGE('',*,*,#430,.F.);
#290=ORIENTED_EDGE('',*,*,#433,.T.);
#291=ORIENTED_EDGE('',*,*,#403,.F.);
#292=ORIENTED_EDGE('',*,*,#408,.T.);
#293=ORIENTED_EDGE('',*,*,#391,.F.);
#294=ORIENTED_EDGE('',*,*,#362,.F.);
#295=ORIENTED_EDGE('',*,*,#434,.T.);
#296=ORIENTED_EDGE('',*,*,#373,.F.);
#297=ORIENTED_EDGE('',*,*,#433,.F.);
#298=ORIENTED_EDGE('',*,*,#428,.T.);
#299=ORIENTED_EDGE('',*,*,#435,.F.);
#300=ORIENTED_EDGE('',*,*,#429,.T.);
#301=ORIENTED_EDGE('',*,*,#435,.T.);
#302=ORIENTED_EDGE('',*,*,#367,.F.);
#303=ORIENTED_EDGE('',*,*,#436,.T.);
#304=ORIENTED_EDGE('',*,*,#364,.F.);
#305=ORIENTED_EDGE('',*,*,#390,.F.);
#306=ORIENTED_EDGE('',*,*,#423,.F.);
#307=ORIENTED_EDGE('',*,*,#437,.F.);
#308=ORIENTED_EDGE('',*,*,#438,.T.);
#309=ORIENTED_EDGE('',*,*,#404,.T.);
#310=ORIENTED_EDGE('',*,*,#424,.F.);
#311=ORIENTED_EDGE('',*,*,#413,.T.);
#312=ORIENTED_EDGE('',*,*,#397,.F.);
#313=ORIENTED_EDGE('',*,*,#438,.F.);
#314=ORIENTED_EDGE('',*,*,#427,.T.);
#315=ORIENTED_EDGE('',*,*,#439,.T.);
#316=ORIENTED_EDGE('',*,*,#412,.T.);
#317=ORIENTED_EDGE('',*,*,#384,.F.);
#318=ORIENTED_EDGE('',*,*,#420,.F.);
#319=ORIENTED_EDGE('',*,*,#399,.F.);
#320=ORIENTED_EDGE('',*,*,#439,.F.);
#321=ORIENTED_EDGE('',*,*,#426,.T.);
#322=ORIENTED_EDGE('',*,*,#374,.F.);
#323=ORIENTED_EDGE('',*,*,#434,.F.);
#324=ORIENTED_EDGE('',*,*,#361,.F.);
#325=ORIENTED_EDGE('',*,*,#431,.F.);
#326=ORIENTED_EDGE('',*,*,#352,.F.);
#327=ORIENTED_EDGE('',*,*,#440,.T.);
#328=ORIENTED_EDGE('',*,*,#365,.T.);
#329=ORIENTED_EDGE('',*,*,#417,.T.);
#330=ORIENTED_EDGE('',*,*,#388,.F.);
#331=ORIENTED_EDGE('',*,*,#441,.F.);
#332=ORIENTED_EDGE('',*,*,#437,.T.);
#333=ORIENTED_EDGE('',*,*,#422,.F.);
#334=ORIENTED_EDGE('',*,*,#368,.F.);
#335=ORIENTED_EDGE('',*,*,#419,.T.);
#336=ORIENTED_EDGE('',*,*,#354,.F.);
#337=ORIENTED_EDGE('',*,*,#442,.F.);
#338=ORIENTED_EDGE('',*,*,#386,.T.);
#339=ORIENTED_EDGE('',*,*,#353,.T.);
#340=ORIENTED_EDGE('',*,*,#441,.T.);
#341=ORIENTED_EDGE('',*,*,#387,.T.);
#342=ORIENTED_EDGE('',*,*,#442,.T.);
#343=ORIENTED_EDGE('',*,*,#366,.F.);
#344=ORIENTED_EDGE('',*,*,#440,.F.);
#345=ORIENTED_EDGE('',*,*,#351,.F.);
#346=ORIENTED_EDGE('',*,*,#436,.F.);
#347=EDGE_CURVE('',#443,#443,#513,.T.);
#348=EDGE_CURVE('',#444,#444,#514,.T.);
#349=EDGE_CURVE('',#445,#445,#515,.T.);
#350=EDGE_CURVE('',#446,#446,#516,.T.);
#351=EDGE_CURVE('',#447,#448,#35,.F.);
#352=EDGE_CURVE('',#448,#449,#36,.T.);
#353=EDGE_CURVE('',#450,#449,#37,.T.);
#354=EDGE_CURVE('',#450,#451,#38,.T.);
#355=EDGE_CURVE('',#452,#451,#39,.T.);
#356=EDGE_CURVE('',#453,#452,#40,.T.);
#357=EDGE_CURVE('',#453,#454,#41,.T.);
#358=EDGE_CURVE('',#455,#454,#42,.T.);
#359=EDGE_CURVE('',#455,#456,#43,.T.);
#360=EDGE_CURVE('',#457,#456,#44,.T.);
#361=EDGE_CURVE('',#457,#458,#45,.F.);
#362=EDGE_CURVE('',#458,#459,#46,.T.);
#363=EDGE_CURVE('',#460,#459,#47,.T.);
#364=EDGE_CURVE('',#460,#447,#48,.T.);
#365=EDGE_CURVE('',#461,#462,#49,.T.);
#366=EDGE_CURVE('',#461,#463,#50,.F.);
#367=EDGE_CURVE('',#463,#464,#25,.T.);
#368=EDGE_CURVE('',#464,#465,#51,.T.);
#369=EDGE_CURVE('',#465,#466,#52,.T.);
#370=EDGE_CURVE('',#467,#466,#53,.T.);
#371=EDGE_CURVE('',#468,#467,#54,.T.);
#372=EDGE_CURVE('',#469,#468,#55,.T.);
#373=EDGE_CURVE('',#469,#470,#26,.T.);
#374=EDGE_CURVE('',#470,#471,#56,.F.);
#375=EDGE_CURVE('',#471,#472,#57,.T.);
#376=EDGE_CURVE('',#473,#472,#58,.T.);
#377=EDGE_CURVE('',#473,#474,#59,.T.);
#378=EDGE_CURVE('',#474,#462,#60,.T.);
#379=EDGE_CURVE('',#475,#475,#517,.T.);
#380=EDGE_CURVE('',#476,#476,#518,.T.);
#381=EDGE_CURVE('',#477,#477,#519,.T.);
#382=EDGE_CURVE('',#478,#478,#520,.T.);
#383=EDGE_CURVE('',#479,#480,#61,.T.);
#384=EDGE_CURVE('',#479,#481,#521,.T.);
#385=EDGE_CURVE('',#481,#480,#62,.T.);
#386=EDGE_CURVE('',#482,#483,#63,.T.);
#387=EDGE_CURVE('',#484,#482,#64,.T.);
#388=EDGE_CURVE('',#484,#485,#65,.T.);
#389=EDGE_CURVE('',#486,#485,#66,.T.);
#390=EDGE_CURVE('',#486,#460,#522,.T.);
#391=EDGE_CURVE('',#459,#487,#523,.T.);
#392=EDGE_CURVE('',#487,#488,#67,.T.);
#393=EDGE_CURVE('',#489,#488,#68,.T.);
#394=EDGE_CURVE('',#489,#490,#69,.T.);
#395=EDGE_CURVE('',#490,#491,#70,.T.);
#396=EDGE_CURVE('',#491,#492,#71,.T.);
#397=EDGE_CURVE('',#492,#493,#524,.T.);
#398=EDGE_CURVE('',#493,#494,#72,.T.);
#399=EDGE_CURVE('',#494,#495,#525,.T.);
#400=EDGE_CURVE('',#483,#495,#73,.T.);
#401=EDGE_CURVE('',#496,#496,#526,.T.);
#402=EDGE_CURVE('',#468,#497,#74,.T.);
#403=EDGE_CURVE('',#497,#469,#527,.T.);
#404=EDGE_CURVE('',#492,#498,#27,.T.);
#405=EDGE_CURVE('',#491,#454,#75,.T.);
#406=EDGE_CURVE('',#473,#453,#76,.T.);
#407=EDGE_CURVE('',#472,#488,#77,.T.);
#408=EDGE_CURVE('',#497,#487,#28,.T.);
#409=EDGE_CURVE('',#467,#499,#78,.T.);
#410=EDGE_CURVE('',#500,#499,#79,.T.);
#411=EDGE_CURVE('',#498,#500,#80,.T.);
#412=EDGE_CURVE('',#494,#481,#29,.T.);
#413=EDGE_CURVE('',#501,#493,#30,.T.);
#414=EDGE_CURVE('',#500,#501,#81,.T.);
#415=EDGE_CURVE('',#499,#502,#82,.T.);
#416=EDGE_CURVE('',#480,#502,#83,.T.);
#417=EDGE_CURVE('',#462,#485,#84,.T.);
#418=EDGE_CURVE('',#474,#452,#85,.T.);
#419=EDGE_CURVE('',#483,#451,#86,.T.);
#420=EDGE_CURVE('',#495,#479,#31,.T.);
#421=EDGE_CURVE('',#466,#502,#87,.T.);
#422=EDGE_CURVE('',#465,#503,#88,.T.);
#423=EDGE_CURVE('',#503,#486,#32,.T.);
#424=EDGE_CURVE('',#501,#498,#528,.T.);
#425=EDGE_CURVE('',#504,#504,#529,.T.);
#426=EDGE_CURVE('',#505,#505,#530,.F.);
#427=EDGE_CURVE('',#506,#506,#531,.F.);
#428=EDGE_CURVE('',#507,#507,#532,.F.);
#429=EDGE_CURVE('',#508,#508,#533,.F.);
#430=EDGE_CURVE('',#456,#489,#89,.T.);
#431=EDGE_CURVE('',#471,#457,#90,.F.);
#432=EDGE_CURVE('',#490,#455,#91,.T.);
#433=EDGE_CURVE('',#509,#509,#534,.T.);
#434=EDGE_CURVE('',#458,#470,#33,.T.);
#435=EDGE_CURVE('',#510,#510,#535,.T.);
#436=EDGE_CURVE('',#463,#447,#34,.T.);
#437=EDGE_CURVE('',#464,#503,#536,.T.);
#438=EDGE_CURVE('',#511,#511,#537,.T.);
#439=EDGE_CURVE('',#512,#512,#538,.T.);
#440=EDGE_CURVE('',#448,#461,#92,.F.);
#441=EDGE_CURVE('',#449,#484,#93,.T.);
#442=EDGE_CURVE('',#482,#450,#94,.T.);
#443=VERTEX_POINT('',#967);
#444=VERTEX_POINT('',#969);
#445=VERTEX_POINT('',#971);
#446=VERTEX_POINT('',#973);
#447=VERTEX_POINT('',#975);
#448=VERTEX_POINT('',#976);
#449=VERTEX_POINT('',#978);
#450=VERTEX_POINT('',#980);
#451=VERTEX_POINT('',#982);
#452=VERTEX_POINT('',#984);
#453=VERTEX_POINT('',#986);
#454=VERTEX_POINT('',#988);
#455=VERTEX_POINT('',#990);
#456=VERTEX_POINT('',#992);
#457=VERTEX_POINT('',#994);
#458=VERTEX_POINT('',#996);
#459=VERTEX_POINT('',#998);
#460=VERTEX_POINT('',#1000);
#461=VERTEX_POINT('',#1004);
#462=VERTEX_POINT('',#1005);
#463=VERTEX_POINT('',#1007);
#464=VERTEX_POINT('',#1015);
#465=VERTEX_POINT('',#1017);
#466=VERTEX_POINT('',#1019);
#467=VERTEX_POINT('',#1021);
#468=VERTEX_POINT('',#1023);
#469=VERTEX_POINT('',#1025);
#470=VERTEX_POINT('',#1033);
#471=VERTEX_POINT('',#1035);
#472=VERTEX_POINT('',#1037);
#473=VERTEX_POINT('',#1039);
#474=VERTEX_POINT('',#1041);
#475=VERTEX_POINT('',#1044);
#476=VERTEX_POINT('',#1046);
#477=VERTEX_POINT('',#1048);
#478=VERTEX_POINT('',#1050);
#479=VERTEX_POINT('',#1053);
#480=VERTEX_POINT('',#1054);
#481=VERTEX_POINT('',#1056);
#482=VERTEX_POINT('',#1060);
#483=VERTEX_POINT('',#1061);
#484=VERTEX_POINT('',#1063);
#485=VERTEX_POINT('',#1065);
#486=VERTEX_POINT('',#1067);
#487=VERTEX_POINT('',#1070);
#488=VERTEX_POINT('',#1072);
#489=VERTEX_POINT('',#1074);
#490=VERTEX_POINT('',#1076);
#491=VERTEX_POINT('',#1078);
#492=VERTEX_POINT('',#1080);
#493=VERTEX_POINT('',#1082);
#494=VERTEX_POINT('',#1084);
#495=VERTEX_POINT('',#1086);
#496=VERTEX_POINT('',#1089);
#497=VERTEX_POINT('',#1092);
#498=VERTEX_POINT('',#1100);
#499=VERTEX_POINT('',#1110);
#500=VERTEX_POINT('',#1112);
#501=VERTEX_POINT('',#1125);
#502=VERTEX_POINT('',#1128);
#503=VERTEX_POINT('',#1141);
#504=VERTEX_POINT('',#1151);
#505=VERTEX_POINT('',#1154);
#506=VERTEX_POINT('',#1156);
#507=VERTEX_POINT('',#1158);
#508=VERTEX_POINT('',#1160);
#509=VERTEX_POINT('',#1174);
#510=VERTEX_POINT('',#1182);
#511=VERTEX_POINT('',#1191);
#512=VERTEX_POINT('',#1195);
#513=CIRCLE('',#726,0.00175);
#514=CIRCLE('',#727,0.00175);
#515=CIRCLE('',#728,0.00175);
#516=CIRCLE('',#729,0.00175);
#517=CIRCLE('',#731,0.00175);
#518=CIRCLE('',#732,0.00175);
#519=CIRCLE('',#733,0.00175);
#520=CIRCLE('',#734,0.00175);
#521=CIRCLE('',#736,0.00275);
#522=CIRCLE('',#738,0.00275);
#523=CIRCLE('',#739,0.00275);
#524=CIRCLE('',#740,0.00275);
#525=CIRCLE('',#741,0.00275);
#526=CIRCLE('',#742,0.011);
#527=CIRCLE('',#744,0.00275);
#528=CIRCLE('',#749,0.00275);
#529=CIRCLE('',#751,0.011);
#530=CIRCLE('',#753,0.00145);
#531=CIRCLE('',#754,0.00145);
#532=CIRCLE('',#755,0.00145);
#533=CIRCLE('',#756,0.00145);
#534=CIRCLE('',#766,0.00145);
#535=CIRCLE('',#769,0.00145);
#536=CIRCLE('',#771,0.00275);
#537=CIRCLE('',#773,0.00145);
#538=CIRCLE('',#776,0.00145);
#539=EDGE_LOOP('',(#155));
#540=EDGE_LOOP('',(#156));
#541=EDGE_LOOP('',(#157));
#542=EDGE_LOOP('',(#158));
#543=EDGE_LOOP('',(#159,#160,#161,#162,#163,#164,#165,#166,#167,#168,#169,
#170,#171,#172));
#544=EDGE_LOOP('',(#173,#174,#175,#176,#177,#178,#179,#180,#181,#182,#183,
#184,#185,#186));
#545=EDGE_LOOP('',(#187));
#546=EDGE_LOOP('',(#188));
#547=EDGE_LOOP('',(#189));
#548=EDGE_LOOP('',(#190));
#549=EDGE_LOOP('',(#191,#192,#193));
#550=EDGE_LOOP('',(#194,#195,#196,#197,#198,#199,#200,#201,#202,#203,#204,
#205,#206,#207,#208,#209));
#551=EDGE_LOOP('',(#210));
#552=EDGE_LOOP('',(#211,#212,#213));
#553=EDGE_LOOP('',(#214,#215,#216,#217,#218,#219,#220,#221,#222,#223,#224,
#225,#226,#227));
#554=EDGE_LOOP('',(#228,#229,#230,#231,#232,#233,#234,#235));
#555=EDGE_LOOP('',(#236,#237,#238,#239,#240,#241,#242,#243,#244,#245,#246,
#247,#248,#249));
#556=EDGE_LOOP('',(#250,#251,#252));
#557=EDGE_LOOP('',(#253));
#558=EDGE_LOOP('',(#254));
#559=EDGE_LOOP('',(#255));
#560=EDGE_LOOP('',(#256));
#561=EDGE_LOOP('',(#257));
#562=EDGE_LOOP('',(#258));
#563=EDGE_LOOP('',(#259,#260,#261,#262));
#564=EDGE_LOOP('',(#263));
#565=EDGE_LOOP('',(#264,#265,#266,#267));
#566=EDGE_LOOP('',(#268));
#567=EDGE_LOOP('',(#269));
#568=EDGE_LOOP('',(#270));
#569=EDGE_LOOP('',(#271));
#570=EDGE_LOOP('',(#272));
#571=EDGE_LOOP('',(#273));
#572=EDGE_LOOP('',(#274));
#573=EDGE_LOOP('',(#275));
#574=EDGE_LOOP('',(#276,#277,#278,#279,#280,#281));
#575=EDGE_LOOP('',(#282,#283,#284,#285));
#576=EDGE_LOOP('',(#286,#287,#288,#289));
#577=EDGE_LOOP('',(#290));
#578=EDGE_LOOP('',(#291,#292,#293,#294,#295,#296));
#579=EDGE_LOOP('',(#297));
#580=EDGE_LOOP('',(#298));
#581=EDGE_LOOP('',(#299));
#582=EDGE_LOOP('',(#300));
#583=EDGE_LOOP('',(#301));
#584=EDGE_LOOP('',(#302,#303,#304,#305,#306,#307));
#585=EDGE_LOOP('',(#308));
#586=EDGE_LOOP('',(#309,#310,#311,#312));
#587=EDGE_LOOP('',(#313));
#588=EDGE_LOOP('',(#314));
#589=EDGE_LOOP('',(#315));
#590=EDGE_LOOP('',(#316,#317,#318,#319));
#591=EDGE_LOOP('',(#320));
#592=EDGE_LOOP('',(#321));
#593=EDGE_LOOP('',(#322,#323,#324,#325));
#594=EDGE_LOOP('',(#326,#327,#328,#329,#330,#331));
#595=EDGE_LOOP('',(#332,#333,#334));
#596=EDGE_LOOP('',(#335,#336,#337,#338));
#597=EDGE_LOOP('',(#339,#340,#341,#342));
#598=EDGE_LOOP('',(#343,#344,#345,#346));
#599=FACE_BOUND('',#539,.T.);
#600=FACE_BOUND('',#540,.T.);
#601=FACE_BOUND('',#541,.T.);
#602=FACE_BOUND('',#542,.T.);
#603=FACE_BOUND('',#543,.T.);
#604=FACE_BOUND('',#544,.T.);
#605=FACE_BOUND('',#545,.T.);
#606=FACE_BOUND('',#546,.T.);
#607=FACE_BOUND('',#547,.T.);
#608=FACE_BOUND('',#548,.T.);
#609=FACE_BOUND('',#549,.T.);
#610=FACE_BOUND('',#550,.T.);
#611=FACE_BOUND('',#551,.T.);
#612=FACE_BOUND('',#552,.T.);
#613=FACE_BOUND('',#553,.T.);
#614=FACE_BOUND('',#554,.T.);
#615=FACE_BOUND('',#555,.T.);
#616=FACE_BOUND('',#556,.T.);
#617=FACE_BOUND('',#557,.T.);
#618=FACE_BOUND('',#558,.T.);
#619=FACE_BOUND('',#559,.T.);
#620=FACE_BOUND('',#560,.T.);
#621=FACE_BOUND('',#561,.T.);
#622=FACE_BOUND('',#562,.T.);
#623=FACE_BOUND('',#563,.T.);
#624=FACE_BOUND('',#564,.T.);
#625=FACE_BOUND('',#565,.T.);
#626=FACE_BOUND('',#566,.T.);
#627=FACE_BOUND('',#567,.T.);
#628=FACE_BOUND('',#568,.T.);
#629=FACE_BOUND('',#569,.T.);
#630=FACE_BOUND('',#570,.T.);
#631=FACE_BOUND('',#571,.T.);
#632=FACE_BOUND('',#572,.T.);
#633=FACE_BOUND('',#573,.T.);
#634=FACE_BOUND('',#574,.T.);
#635=FACE_BOUND('',#575,.T.);
#636=FACE_BOUND('',#576,.T.);
#637=FACE_BOUND('',#577,.T.);
#638=FACE_BOUND('',#578,.T.);
#639=FACE_BOUND('',#579,.T.);
#640=FACE_BOUND('',#580,.T.);
#641=FACE_BOUND('',#581,.T.);
#642=FACE_BOUND('',#582,.T.);
#643=FACE_BOUND('',#583,.T.);
#644=FACE_BOUND('',#584,.T.);
#645=FACE_BOUND('',#585,.T.);
#646=FACE_BOUND('',#586,.T.);
#647=FACE_BOUND('',#587,.T.);
#648=FACE_BOUND('',#588,.T.);
#649=FACE_BOUND('',#589,.T.);
#650=FACE_BOUND('',#590,.T.);
#651=FACE_BOUND('',#591,.T.);
#652=FACE_BOUND('',#592,.T.);
#653=FACE_BOUND('',#593,.T.);
#654=FACE_BOUND('',#594,.T.);
#655=FACE_BOUND('',#595,.T.);
#656=FACE_BOUND('',#596,.T.);
#657=FACE_BOUND('',#597,.T.);
#658=FACE_BOUND('',#598,.T.);
#659=PLANE('',#725);
#660=PLANE('',#730);
#661=PLANE('',#735);
#662=PLANE('',#737);
#663=PLANE('',#743);
#664=PLANE('',#745);
#665=PLANE('',#746);
#666=PLANE('',#747);
#667=PLANE('',#748);
#668=PLANE('',#752);
#669=PLANE('',#757);
#670=PLANE('',#762);
#671=PLANE('',#763);
#672=PLANE('',#764);
#673=PLANE('',#778);
#674=PLANE('',#779);
#675=PLANE('',#780);
#676=PLANE('',#781);
#677=PLANE('',#782);
#678=PLANE('',#783);
#679=ADVANCED_FACE('',(#599,#600,#601,#602,#603),#659,.F.);
#680=ADVANCED_FACE('',(#604,#605,#606,#607,#608),#660,.T.);
#681=ADVANCED_FACE('',(#609),#661,.T.);
#682=ADVANCED_FACE('',(#610,#611),#662,.T.);
#683=ADVANCED_FACE('',(#612),#663,.T.);
#684=ADVANCED_FACE('',(#613),#664,.F.);
#685=ADVANCED_FACE('',(#614),#665,.F.);
#686=ADVANCED_FACE('',(#615),#666,.T.);
#687=ADVANCED_FACE('',(#616),#667,.T.);
#688=ADVANCED_FACE('',(#617,#618),#16,.F.);
#689=ADVANCED_FACE('',(#619,#620,#621,#622,#623,#624),#668,.F.);
#690=ADVANCED_FACE('',(#625),#669,.T.);
#691=ADVANCED_FACE('',(#626,#627),#17,.F.);
#692=ADVANCED_FACE('',(#628,#629),#18,.F.);
#693=ADVANCED_FACE('',(#630,#631),#19,.F.);
#694=ADVANCED_FACE('',(#632,#633),#20,.F.);
#695=ADVANCED_FACE('',(#634),#670,.T.);
#696=ADVANCED_FACE('',(#635),#671,.T.);
#697=ADVANCED_FACE('',(#636),#672,.F.);
#698=ADVANCED_FACE('',(#637,#638),#12,.F.);
#699=ADVANCED_FACE('',(#639,#640),#21,.F.);
#700=ADVANCED_FACE('',(#641,#642),#22,.F.);
#701=ADVANCED_FACE('',(#643,#644),#13,.F.);
#702=ADVANCED_FACE('',(#645,#646),#14,.F.);
#703=ADVANCED_FACE('',(#647,#648),#23,.F.);
#704=ADVANCED_FACE('',(#649,#650),#15,.F.);
#705=ADVANCED_FACE('',(#651,#652),#24,.F.);
#706=ADVANCED_FACE('',(#653),#673,.F.);
#707=ADVANCED_FACE('',(#654),#674,.F.);
#708=ADVANCED_FACE('',(#655),#675,.T.);
#709=ADVANCED_FACE('',(#656),#676,.F.);
#710=ADVANCED_FACE('',(#657),#677,.F.);
#711=ADVANCED_FACE('',(#658),#678,.F.);
#712=CLOSED_SHELL('',(#679,#680,#681,#682,#683,#684,#685,#686,#687,#688,
#689,#690,#691,#692,#693,#694,#695,#696,#697,#698,#699,#700,#701,#702,#703,
#704,#705,#706,#707,#708,#709,#710,#711));
#713=STYLED_ITEM('',(#714),#721);
#714=PRESENTATION_STYLE_ASSIGNMENT((#715));
#715=SURFACE_STYLE_USAGE(.BOTH.,#716);
#716=SURFACE_SIDE_STYLE('',(#717));
#717=SURFACE_STYLE_FILL_AREA(#718);
#718=FILL_AREA_STYLE('',(#719));
#719=FILL_AREA_STYLE_COLOUR('',#720);
#720=COLOUR_RGB('',0.372549019607843,0.654901960784314,0.23921568627451);
#721=MANIFOLD_SOLID_BREP('Part 1',#712);
#722=SHAPE_DEFINITION_REPRESENTATION(#1212,#723);
#723=SHAPE_REPRESENTATION('Part 1',(#724),#1207);
#724=AXIS2_PLACEMENT_3D('',#964,#784,#785);
#725=AXIS2_PLACEMENT_3D('',#965,#786,#787);
#726=AXIS2_PLACEMENT_3D('',#966,#788,#789);
#727=AXIS2_PLACEMENT_3D('',#968,#790,#791);
#728=AXIS2_PLACEMENT_3D('',#970,#792,#793);
#729=AXIS2_PLACEMENT_3D('',#972,#794,#795);
#730=AXIS2_PLACEMENT_3D('',#1002,#810,#811);
#731=AXIS2_PLACEMENT_3D('',#1043,#824,#825);
#732=AXIS2_PLACEMENT_3D('',#1045,#826,#827);
#733=AXIS2_PLACEMENT_3D('',#1047,#828,#829);
#734=AXIS2_PLACEMENT_3D('',#1049,#830,#831);
#735=AXIS2_PLACEMENT_3D('',#1051,#832,#833);
#736=AXIS2_PLACEMENT_3D('',#1055,#835,#836);
#737=AXIS2_PLACEMENT_3D('',#1058,#838,#839);
#738=AXIS2_PLACEMENT_3D('',#1068,#844,#845);
#739=AXIS2_PLACEMENT_3D('',#1069,#846,#847);
#740=AXIS2_PLACEMENT_3D('',#1081,#853,#854);
#741=AXIS2_PLACEMENT_3D('',#1085,#856,#857);
#742=AXIS2_PLACEMENT_3D('',#1088,#859,#860);
#743=AXIS2_PLACEMENT_3D('',#1090,#861,#862);
#744=AXIS2_PLACEMENT_3D('',#1093,#864,#865);
#745=AXIS2_PLACEMENT_3D('',#1094,#866,#867);
#746=AXIS2_PLACEMENT_3D('',#1114,#874,#875);
#747=AXIS2_PLACEMENT_3D('',#1130,#879,#880);
#748=AXIS2_PLACEMENT_3D('',#1147,#886,#887);
#749=AXIS2_PLACEMENT_3D('',#1148,#888,#889);
#750=AXIS2_PLACEMENT_3D('',#1149,#890,#891);
#751=AXIS2_PLACEMENT_3D('',#1150,#892,#893);
#752=AXIS2_PLACEMENT_3D('',#1152,#894,#895);
#753=AXIS2_PLACEMENT_3D('',#1153,#896,#897);
#754=AXIS2_PLACEMENT_3D('',#1155,#898,#899);
#755=AXIS2_PLACEMENT_3D('',#1157,#900,#901);
#756=AXIS2_PLACEMENT_3D('',#1159,#902,#903);
#757=AXIS2_PLACEMENT_3D('',#1161,#904,#905);
#758=AXIS2_PLACEMENT_3D('',#1162,#906,#907);
#759=AXIS2_PLACEMENT_3D('',#1163,#908,#909);
#760=AXIS2_PLACEMENT_3D('',#1164,#910,#911);
#761=AXIS2_PLACEMENT_3D('',#1165,#912,#913);
#762=AXIS2_PLACEMENT_3D('',#1166,#914,#915);
#763=AXIS2_PLACEMENT_3D('',#1169,#918,#919);
#764=AXIS2_PLACEMENT_3D('',#1171,#921,#922);
#765=AXIS2_PLACEMENT_3D('',#1172,#923,#924);
#766=AXIS2_PLACEMENT_3D('',#1173,#925,#926);
#767=AXIS2_PLACEMENT_3D('',#1179,#927,#928);
#768=AXIS2_PLACEMENT_3D('',#1180,#929,#930);
#769=AXIS2_PLACEMENT_3D('',#1181,#931,#932);
#770=AXIS2_PLACEMENT_3D('',#1183,#933,#934);
#771=AXIS2_PLACEMENT_3D('',#1188,#935,#936);
#772=AXIS2_PLACEMENT_3D('',#1189,#937,#938);
#773=AXIS2_PLACEMENT_3D('',#1190,#939,#940);
#774=AXIS2_PLACEMENT_3D('',#1192,#941,#942);
#775=AXIS2_PLACEMENT_3D('',#1193,#943,#944);
#776=AXIS2_PLACEMENT_3D('',#1194,#945,#946);
#777=AXIS2_PLACEMENT_3D('',#1196,#947,#948);
#778=AXIS2_PLACEMENT_3D('',#1197,#949,#950);
#779=AXIS2_PLACEMENT_3D('',#1198,#951,#952);
#780=AXIS2_PLACEMENT_3D('',#1201,#955,#956);
#781=AXIS2_PLACEMENT_3D('',#1202,#957,#958);
#782=AXIS2_PLACEMENT_3D('',#1204,#960,#961);
#783=AXIS2_PLACEMENT_3D('',#1205,#962,#963);
#784=DIRECTION('',(0.,0.,1.));
#785=DIRECTION('',(1.,0.,0.));
#786=DIRECTION('',(0.,1.,0.));
#787=DIRECTION('',(0.,0.,1.));
#788=DIRECTION('',(0.,-1.,0.));
#789=DIRECTION('',(0.,0.,-1.));
#790=DIRECTION('',(0.,-1.,0.));
#791=DIRECTION('',(0.,0.,-1.));
#792=DIRECTION('',(0.,-1.,0.));
#793=DIRECTION('',(0.,0.,-1.));
#794=DIRECTION('',(0.,-1.,0.));
#795=DIRECTION('',(0.,0.,-1.));
#796=DIRECTION('',(-0.17364817766693,0.,-0.984807753012208));
#797=DIRECTION('',(1.,0.,0.));
#798=DIRECTION('',(0.,0.,-1.));
#799=DIRECTION('',(1.,0.,0.));
#800=DIRECTION('',(0.,0.,-1.));
#801=DIRECTION('',(1.,0.,0.));
#802=DIRECTION('',(0.,0.,-1.));
#803=DIRECTION('',(-1.,0.,0.));
#804=DIRECTION('',(0.,0.,-1.));
#805=DIRECTION('',(-1.,0.,0.));
#806=DIRECTION('',(-0.17364817766693,0.,0.984807753012208));
#807=DIRECTION('',(-0.707106781186548,0.,-0.707106781186547));
#808=DIRECTION('',(-1.,0.,0.));
#809=DIRECTION('',(-0.707106781186548,0.,0.707106781186547));
#810=DIRECTION('',(0.,1.,0.));
#811=DIRECTION('',(0.,0.,1.));
#812=DIRECTION('',(1.,0.,0.));
#813=DIRECTION('',(0.17364817766693,0.,0.984807753012208));
#814=DIRECTION('',(1.,0.,0.));
#815=DIRECTION('',(0.,0.,-1.));
#816=DIRECTION('',(1.,0.,0.));
#817=DIRECTION('',(0.,0.,-1.));
#818=DIRECTION('',(-1.,0.,0.));
#819=DIRECTION('',(0.17364817766693,0.,-0.984807753012208));
#820=DIRECTION('',(-1.,0.,0.));
#821=DIRECTION('',(0.,0.,-1.));
#822=DIRECTION('',(1.,0.,0.));
#823=DIRECTION('',(0.,0.,-1.));
#824=DIRECTION('',(0.,1.,0.));
#825=DIRECTION('',(0.,0.,1.));
#826=DIRECTION('',(0.,1.,0.));
#827=DIRECTION('',(0.,0.,1.));
#828=DIRECTION('',(0.,1.,0.));
#829=DIRECTION('',(0.,0.,1.));
#830=DIRECTION('',(0.,1.,0.));
#831=DIRECTION('',(0.,0.,1.));
#832=DIRECTION('',(0.,0.,1.));
#833=DIRECTION('',(1.,0.,0.));
#834=DIRECTION('',(0.,-1.,0.));
#835=DIRECTION('',(0.,0.,-1.));
#836=DIRECTION('',(-1.,0.,0.));
#837=DIRECTION('',(1.,0.,0.));
#838=DIRECTION('',(0.,0.,1.));
#839=DIRECTION('',(1.,0.,0.));
#840=DIRECTION('',(1.,0.,0.));
#841=DIRECTION('',(0.,-1.,0.));
#842=DIRECTION('',(1.,0.,0.));
#843=DIRECTION('',(0.,-1.,0.));
#844=DIRECTION('',(0.,0.,-1.));
#845=DIRECTION('',(-1.,0.,0.));
#846=DIRECTION('',(0.,0.,-1.));
#847=DIRECTION('',(-1.,0.,0.));
#848=DIRECTION('',(0.,-1.,0.));
#849=DIRECTION('',(-1.,0.,0.));
#850=DIRECTION('',(0.,-1.,0.));
#851=DIRECTION('',(-1.,0.,0.));
#852=DIRECTION('',(0.,-1.,0.));
#853=DIRECTION('',(0.,0.,-1.));
#854=DIRECTION('',(-1.,0.,0.));
#855=DIRECTION('',(1.,0.,0.));
#856=DIRECTION('',(0.,0.,-1.));
#857=DIRECTION('',(-1.,0.,0.));
#858=DIRECTION('',(0.,-1.,0.));
#859=DIRECTION('',(0.,0.,1.));
#860=DIRECTION('',(1.,0.,0.));
#861=DIRECTION('',(0.,0.,1.));
#862=DIRECTION('',(1.,0.,0.));
#863=DIRECTION('',(0.,-1.,0.));
#864=DIRECTION('',(0.,0.,-1.));
#865=DIRECTION('',(-1.,0.,0.));
#866=DIRECTION('',(1.,0.,0.));
#867=DIRECTION('',(0.,0.,-1.));
#868=DIRECTION('',(0.,0.554700196225229,0.832050294337844));
#869=DIRECTION('',(0.,-1.,0.));
#870=DIRECTION('',(0.,-0.554700196225229,-0.832050294337844));
#871=DIRECTION('',(0.,-1.,0.));
#872=DIRECTION('',(0.,0.,-1.));
#873=DIRECTION('',(0.,-1.,0.));
#874=DIRECTION('',(0.,1.,0.));
#875=DIRECTION('',(0.,0.,1.));
#876=DIRECTION('',(1.,0.,0.));
#877=DIRECTION('',(1.,0.,0.));
#878=DIRECTION('',(0.,0.,-1.));
#879=DIRECTION('',(1.,0.,0.));
#880=DIRECTION('',(0.,0.,-1.));
#881=DIRECTION('',(0.,-0.554700196225229,-0.832050294337844));
#882=DIRECTION('',(0.,-1.,0.));
#883=DIRECTION('',(0.,0.554700196225229,0.832050294337844));
#884=DIRECTION('',(0.,-1.,0.));
#885=DIRECTION('',(0.,-1.,0.));
#886=DIRECTION('',(0.,0.,1.));
#887=DIRECTION('',(1.,0.,0.));
#888=DIRECTION('',(0.,0.,-1.));
#889=DIRECTION('',(-1.,0.,0.));
#890=DIRECTION('',(0.,0.,-1.));
#891=DIRECTION('',(-1.,0.,0.));
#892=DIRECTION('',(0.,0.,1.));
#893=DIRECTION('',(1.,0.,0.));
#894=DIRECTION('',(0.,0.,1.));
#895=DIRECTION('',(1.,0.,0.));
#896=DIRECTION('',(0.,0.,1.));
#897=DIRECTION('',(1.,0.,0.));
#898=DIRECTION('',(0.,0.,1.));
#899=DIRECTION('',(1.,0.,0.));
#900=DIRECTION('',(0.,0.,1.));
#901=DIRECTION('',(1.,0.,0.));
#902=DIRECTION('',(0.,0.,1.));
#903=DIRECTION('',(1.,0.,0.));
#904=DIRECTION('',(0.,0.,1.));
#905=DIRECTION('',(1.,0.,0.));
#906=DIRECTION('',(0.,-1.,0.));
#907=DIRECTION('',(0.,0.,-1.));
#908=DIRECTION('',(0.,-1.,0.));
#909=DIRECTION('',(0.,0.,-1.));
#910=DIRECTION('',(0.,-1.,0.));
#911=DIRECTION('',(0.,0.,-1.));
#912=DIRECTION('',(0.,-1.,0.));
#913=DIRECTION('',(0.,0.,-1.));
#914=DIRECTION('',(0.,0.832050294337844,-0.554700196225229));
#915=DIRECTION('',(0.,0.554700196225229,0.832050294337844));
#916=DIRECTION('',(0.,-0.554700196225229,-0.832050294337844));
#917=DIRECTION('',(-0.145158983338885,0.548825002109337,0.823237503164007));
#918=DIRECTION('',(0.,-0.832050294337844,0.554700196225229));
#919=DIRECTION('',(0.,-0.554700196225229,-0.832050294337844));
#920=DIRECTION('',(0.,0.554700196225229,0.832050294337844));
#921=DIRECTION('',(-1.,0.,0.));
#922=DIRECTION('',(0.,-1.,0.));
#923=DIRECTION('',(0.,0.,1.));
#924=DIRECTION('',(1.,0.,0.));
#925=DIRECTION('',(0.,0.,-1.));
#926=DIRECTION('',(-1.,0.,0.));
#927=DIRECTION('',(0.,0.,-1.));
#928=DIRECTION('',(-1.,0.,0.));
#929=DIRECTION('',(0.,0.,-1.));
#930=DIRECTION('',(-1.,0.,0.));
#931=DIRECTION('',(0.,0.,-1.));
#932=DIRECTION('',(-1.,0.,0.));
#933=DIRECTION('',(0.,0.,1.));
#934=DIRECTION('',(1.,0.,0.));
#935=DIRECTION('',(0.,0.,-1.));
#936=DIRECTION('',(-1.,0.,0.));
#937=DIRECTION('',(0.,0.,1.));
#938=DIRECTION('',(1.,0.,0.));
#939=DIRECTION('',(0.,0.,-1.));
#940=DIRECTION('',(-1.,0.,0.));
#941=DIRECTION('',(0.,0.,-1.));
#942=DIRECTION('',(-1.,0.,0.));
#943=DIRECTION('',(0.,0.,1.));
#944=DIRECTION('',(1.,0.,0.));
#945=DIRECTION('',(0.,0.,-1.));
#946=DIRECTION('',(-1.,0.,0.));
#947=DIRECTION('',(0.,0.,-1.));
#948=DIRECTION('',(-1.,0.,0.));
#949=DIRECTION('',(0.984807753012208,0.,0.17364817766693));
#950=DIRECTION('',(0.,-1.,0.));
#951=DIRECTION('',(0.,-0.832050294337844,0.554700196225229));
#952=DIRECTION('',(0.,-0.554700196225229,-0.832050294337844));
#953=DIRECTION('',(-0.145158983338885,-0.548825002109337,-0.823237503164007));
#954=DIRECTION('',(0.,-0.554700196225229,-0.832050294337844));
#955=DIRECTION('',(0.,0.,1.));
#956=DIRECTION('',(1.,0.,0.));
#957=DIRECTION('',(0.,0.832050294337844,-0.554700196225229));
#958=DIRECTION('',(0.,0.554700196225229,0.832050294337844));
#959=DIRECTION('',(0.,0.554700196225229,0.832050294337844));
#960=DIRECTION('',(1.,0.,0.));
#961=DIRECTION('',(0.,-1.,0.));
#962=DIRECTION('',(-0.984807753012208,0.,0.17364817766693));
#963=DIRECTION('',(0.,-1.,0.));
#964=CARTESIAN_POINT('',(0.,0.,0.));
#965=CARTESIAN_POINT('',(-1.7347234759768E-18,0.0115,0.028));
#966=CARTESIAN_POINT('',(-0.00825,0.0115,0.0205));
#967=CARTESIAN_POINT('',(-0.00825,0.0115,0.01875));
#968=CARTESIAN_POINT('',(0.00825,0.0115,0.0205));
#969=CARTESIAN_POINT('',(0.00825,0.0115,0.01875));
#970=CARTESIAN_POINT('',(0.00825,0.0115,0.0105));
#971=CARTESIAN_POINT('',(0.00825,0.0115,0.00875));
#972=CARTESIAN_POINT('',(-0.00825,0.0115,0.0105));
#973=CARTESIAN_POINT('',(-0.00825,0.0115,0.00875));
#974=CARTESIAN_POINT('',(0.00873673019291535,0.0115,0.003));
#975=CARTESIAN_POINT('',(0.00873871928698205,0.0115,0.00301128071301795));
#976=CARTESIAN_POINT('',(0.00979469207716614,0.0115,0.009));
#977=CARTESIAN_POINT('',(-1.7347234759768E-18,0.0115,0.009));
#978=CARTESIAN_POINT('',(0.011,0.0115,0.009));
#979=CARTESIAN_POINT('',(0.011,0.0115,0.028));
#980=CARTESIAN_POINT('',(0.011,0.0115,0.012605551275464));
#981=CARTESIAN_POINT('',(0.011,0.0115,0.012605551275464));
#982=CARTESIAN_POINT('',(0.014,0.0115,0.012605551275464));
#983=CARTESIAN_POINT('',(0.014,0.0115,0.028));
#984=CARTESIAN_POINT('',(0.014,0.0115,0.028));
#985=CARTESIAN_POINT('',(-1.7347234759768E-18,0.0115,0.028));
#986=CARTESIAN_POINT('',(-0.014,0.0115,0.028));
#987=CARTESIAN_POINT('',(-0.014,0.0115,0.028));
#988=CARTESIAN_POINT('',(-0.014,0.0115,0.012605551275464));
#989=CARTESIAN_POINT('',(-0.011,0.0115,0.012605551275464));
#990=CARTESIAN_POINT('',(-0.011,0.0115,0.012605551275464));
#991=CARTESIAN_POINT('',(-0.011,0.0115,0.028));
#992=CARTESIAN_POINT('',(-0.011,0.0115,0.009));
#993=CARTESIAN_POINT('',(-1.7347234759768E-18,0.0115,0.009));
#994=CARTESIAN_POINT('',(-0.00979469207716614,0.0115,0.009));
#995=CARTESIAN_POINT('',(-0.0105,0.0115,0.013));
#996=CARTESIAN_POINT('',(-0.00873871928698205,0.0115,0.00301128071301795));
#997=CARTESIAN_POINT('',(-0.0115,0.0115,0.00025));
#998=CARTESIAN_POINT('',(-0.00875,0.0115,0.003));
#999=CARTESIAN_POINT('',(-3.46944695195361E-18,0.0115,0.003));
#1000=CARTESIAN_POINT('',(0.00875,0.0115,0.003));
#1001=CARTESIAN_POINT('',(0.0115,0.0115,0.00025));
#1002=CARTESIAN_POINT('',(-1.7347234759768E-18,0.014,0.003));
#1003=CARTESIAN_POINT('',(0.0105,0.014,0.01275));
#1004=CARTESIAN_POINT('',(0.0104559182548229,0.014,0.01275));
#1005=CARTESIAN_POINT('',(0.014,0.014,0.01275));
#1006=CARTESIAN_POINT('',(0.00847328554249768,0.014,0.0015059311436107));
#1007=CARTESIAN_POINT('',(0.00888920488966103,0.014,0.00386472697560548));
#1008=CARTESIAN_POINT('',(0.00888920488966103,0.014,0.00386472697560547));
#1009=CARTESIAN_POINT('',(0.00916277760973151,0.014,0.00366713464713853));
#1010=CARTESIAN_POINT('',(0.00972642908771487,0.014,0.00328926949285539));
#1011=CARTESIAN_POINT('',(0.0106405905824193,0.014,0.00283849931908781));
#1012=CARTESIAN_POINT('',(0.0116656638504418,0.014,0.00268258302296206));
#1013=CARTESIAN_POINT('',(0.0123314009129276,0.014,0.00286908705603147));
#1014=CARTESIAN_POINT('',(0.0126456439237389,0.014,0.00299999999999999));
#1015=CARTESIAN_POINT('',(0.0126456439237389,0.014,0.003));
#1016=CARTESIAN_POINT('',(0.0105,0.014,0.003));
#1017=CARTESIAN_POINT('',(0.014,0.014,0.003));
#1018=CARTESIAN_POINT('',(0.014,0.014,0.003));
#1019=CARTESIAN_POINT('',(0.014,0.014,0.));
#1020=CARTESIAN_POINT('',(-1.7347234759768E-18,0.014,0.));
#1021=CARTESIAN_POINT('',(-0.014,0.014,0.));
#1022=CARTESIAN_POINT('',(-0.014,0.014,0.003));
#1023=CARTESIAN_POINT('',(-0.014,0.014,0.003));
#1024=CARTESIAN_POINT('',(-0.0105,0.014,0.003));
#1025=CARTESIAN_POINT('',(-0.012645643923739,0.014,0.003));
#1026=CARTESIAN_POINT('',(-0.012645643923739,0.014,0.00299999999999996));
#1027=CARTESIAN_POINT('',(-0.0123332698068844,0.014,0.00286986563312443));
#1028=CARTESIAN_POINT('',(-0.0116658520289687,0.014,0.00268217412634419));
#1029=CARTESIAN_POINT('',(-0.0106381265924593,0.014,0.00283882686158352));
#1030=CARTESIAN_POINT('',(-0.00971904706857646,0.014,0.00329381222794619));
#1031=CARTESIAN_POINT('',(-0.00916235381375518,0.014,0.00366744074064719));
#1032=CARTESIAN_POINT('',(-0.00888920488966103,0.014,0.00386472697560547));
#1033=CARTESIAN_POINT('',(-0.00888920488966103,0.014,0.00386472697560548));
#1034=CARTESIAN_POINT('',(-0.00847328554249767,0.014,0.0015059311436107));
#1035=CARTESIAN_POINT('',(-0.0104559182548229,0.014,0.01275));
#1036=CARTESIAN_POINT('',(-0.0105,0.014,0.01275));
#1037=CARTESIAN_POINT('',(-0.014,0.014,0.01275));
#1038=CARTESIAN_POINT('',(-0.014,0.014,0.003));
#1039=CARTESIAN_POINT('',(-0.014,0.014,0.028));
#1040=CARTESIAN_POINT('',(-1.7347234759768E-18,0.014,0.028));
#1041=CARTESIAN_POINT('',(0.014,0.014,0.028));
#1042=CARTESIAN_POINT('',(0.014,0.014,0.003));
#1043=CARTESIAN_POINT('',(-0.00825,0.014,0.0105));
#1044=CARTESIAN_POINT('',(-0.00825,0.014,0.01225));
#1045=CARTESIAN_POINT('',(0.00825,0.014,0.0105));
#1046=CARTESIAN_POINT('',(0.00825,0.014,0.01225));
#1047=CARTESIAN_POINT('',(0.00825,0.014,0.0205));
#1048=CARTESIAN_POINT('',(0.00825,0.014,0.02225));
#1049=CARTESIAN_POINT('',(-0.00825,0.014,0.0205));
#1050=CARTESIAN_POINT('',(-0.00825,0.014,0.02225));
#1051=CARTESIAN_POINT('',(-3.46944695195361E-18,-3.46944695195361E-18,0.003));
#1052=CARTESIAN_POINT('',(0.014,-0.01275,0.003));
#1053=CARTESIAN_POINT('',(0.014,-0.012645643923739,0.003));
#1054=CARTESIAN_POINT('',(0.014,-0.014,0.003));
#1055=CARTESIAN_POINT('',(0.0115,-0.0115,0.003));
#1056=CARTESIAN_POINT('',(0.012645643923739,-0.014,0.003));
#1057=CARTESIAN_POINT('',(0.01275,-0.014,0.003));
#1058=CARTESIAN_POINT('',(-3.46944695195361E-18,-3.46944695195361E-18,0.003));
#1059=CARTESIAN_POINT('',(0.011,0.00509629914969067,0.003));
#1060=CARTESIAN_POINT('',(0.011,0.00509629914969067,0.003));
#1061=CARTESIAN_POINT('',(0.014,0.00509629914969067,0.003));
#1062=CARTESIAN_POINT('',(0.011,-0.01275,0.003));
#1063=CARTESIAN_POINT('',(0.011,0.0075,0.003));
#1064=CARTESIAN_POINT('',(0.011,0.0075,0.003));
#1065=CARTESIAN_POINT('',(0.014,0.0075,0.003));
#1066=CARTESIAN_POINT('',(0.014,-0.01275,0.003));
#1067=CARTESIAN_POINT('',(0.014,0.010354356076261,0.003));
#1068=CARTESIAN_POINT('',(0.0115,0.0115,0.003));
#1069=CARTESIAN_POINT('',(-0.0115,0.0115,0.003));
#1070=CARTESIAN_POINT('',(-0.014,0.010354356076261,0.003));
#1071=CARTESIAN_POINT('',(-0.014,-0.01275,0.003));
#1072=CARTESIAN_POINT('',(-0.014,0.0075,0.003));
#1073=CARTESIAN_POINT('',(-0.011,0.0075,0.003));
#1074=CARTESIAN_POINT('',(-0.011,0.0075,0.003));
#1075=CARTESIAN_POINT('',(-0.011,-0.01275,0.003));
#1076=CARTESIAN_POINT('',(-0.011,0.00509629914969067,0.003));
#1077=CARTESIAN_POINT('',(-0.011,0.00509629914969067,0.003));
#1078=CARTESIAN_POINT('',(-0.014,0.00509629914969067,0.003));
#1079=CARTESIAN_POINT('',(-0.014,-0.01275,0.003));
#1080=CARTESIAN_POINT('',(-0.014,-0.010354356076261,0.003));
#1081=CARTESIAN_POINT('',(-0.0115,-0.0115,0.003));
#1082=CARTESIAN_POINT('',(-0.010354356076261,-0.014,0.003));
#1083=CARTESIAN_POINT('',(0.01275,-0.014,0.003));
#1084=CARTESIAN_POINT('',(0.010354356076261,-0.014,0.003));
#1085=CARTESIAN_POINT('',(0.0115,-0.0115,0.003));
#1086=CARTESIAN_POINT('',(0.014,-0.010354356076261,0.003));
#1087=CARTESIAN_POINT('',(0.014,-0.01275,0.003));
#1088=CARTESIAN_POINT('',(0.,6.73555739531044E-19,0.003));
#1089=CARTESIAN_POINT('',(0.011,6.73555739531044E-19,0.003));
#1090=CARTESIAN_POINT('',(-3.46944695195361E-18,-3.46944695195361E-18,0.003));
#1091=CARTESIAN_POINT('',(-0.014,-0.01275,0.003));
#1092=CARTESIAN_POINT('',(-0.014,0.012645643923739,0.003));
#1093=CARTESIAN_POINT('',(-0.0115,0.0115,0.003));
#1094=CARTESIAN_POINT('',(-0.014,-0.01275,0.003));
#1095=CARTESIAN_POINT('',(-0.014,-0.010354356076261,0.00299999999999996));
#1096=CARTESIAN_POINT('',(-0.014,-0.0107158752878318,0.00284939189525415));
#1097=CARTESIAN_POINT('',(-0.014,-0.0114980238838785,0.00265124153061131));
#1098=CARTESIAN_POINT('',(-0.014,-0.0122810896250203,0.00284812748465455));
#1099=CARTESIAN_POINT('',(-0.014,-0.012645643923739,0.003));
#1100=CARTESIAN_POINT('',(-0.014,-0.012645643923739,0.003));
#1101=CARTESIAN_POINT('',(-0.014,0.00829814957484534,0.00780277563773199));
#1102=CARTESIAN_POINT('',(-0.014,0.01275,0.028));
#1103=CARTESIAN_POINT('',(-0.014,0.0095,0.006));
#1104=CARTESIAN_POINT('',(-0.014,0.012645643923739,0.00299999999999996));
#1105=CARTESIAN_POINT('',(-0.014,0.0122841247121682,0.00284939189525415));
#1106=CARTESIAN_POINT('',(-0.014,0.0115019761161215,0.00265124153061131));
#1107=CARTESIAN_POINT('',(-0.014,0.0107189103749797,0.00284812748465456));
#1108=CARTESIAN_POINT('',(-0.014,0.010354356076261,0.003));
#1109=CARTESIAN_POINT('',(-0.014,-0.01275,0.));
#1110=CARTESIAN_POINT('',(-0.014,-0.014,0.));
#1111=CARTESIAN_POINT('',(-0.014,-0.014,0.003));
#1112=CARTESIAN_POINT('',(-0.014,-0.014,0.003));
#1113=CARTESIAN_POINT('',(-0.014,-0.01275,0.003));
#1114=CARTESIAN_POINT('',(0.01275,-0.014,0.003));
#1115=CARTESIAN_POINT('',(0.010354356076261,-0.014,0.00299999999999997));
#1116=CARTESIAN_POINT('',(0.0107158752878318,-0.014,0.00284939189525415));
#1117=CARTESIAN_POINT('',(0.0114980238838785,-0.014,0.00265124153061131));
#1118=CARTESIAN_POINT('',(0.0122810896250203,-0.014,0.00284812748465455));
#1119=CARTESIAN_POINT('',(0.012645643923739,-0.014,0.00299999999999999));
#1120=CARTESIAN_POINT('',(-0.012645643923739,-0.014,0.00299999999999996));
#1121=CARTESIAN_POINT('',(-0.0122841247121682,-0.014,0.00284939189525415));
#1122=CARTESIAN_POINT('',(-0.0115019761161215,-0.014,0.00265124153061131));
#1123=CARTESIAN_POINT('',(-0.0107189103749797,-0.014,0.00284812748465456));
#1124=CARTESIAN_POINT('',(-0.010354356076261,-0.014,0.003));
#1125=CARTESIAN_POINT('',(-0.012645643923739,-0.014,0.003));
#1126=CARTESIAN_POINT('',(0.01275,-0.014,0.003));
#1127=CARTESIAN_POINT('',(0.01275,-0.014,0.));
#1128=CARTESIAN_POINT('',(0.014,-0.014,0.));
#1129=CARTESIAN_POINT('',(0.014,-0.014,0.003));
#1130=CARTESIAN_POINT('',(0.014,-0.01275,0.003));
#1131=CARTESIAN_POINT('',(0.014,0.0095,0.006));
#1132=CARTESIAN_POINT('',(0.014,0.01275,0.028));
#1133=CARTESIAN_POINT('',(0.014,0.00829814957484534,0.00780277563773199));
#1134=CARTESIAN_POINT('',(0.014,-0.010354356076261,0.00299999999999996));
#1135=CARTESIAN_POINT('',(0.014,-0.0107158752878318,0.00284939189525415));
#1136=CARTESIAN_POINT('',(0.014,-0.0114980238838785,0.00265124153061131));
#1137=CARTESIAN_POINT('',(0.014,-0.0122810896250203,0.00284812748465455));
#1138=CARTESIAN_POINT('',(0.014,-0.012645643923739,0.003));
#1139=CARTESIAN_POINT('',(0.014,-0.01275,0.));
#1140=CARTESIAN_POINT('',(0.014,-0.01275,0.003));
#1141=CARTESIAN_POINT('',(0.014,0.0126456439237389,0.003));
#1142=CARTESIAN_POINT('',(0.014,0.012645643923739,0.00299999999999996));
#1143=CARTESIAN_POINT('',(0.014,0.0122841247121682,0.00284939189525414));
#1144=CARTESIAN_POINT('',(0.014,0.0115019761161215,0.00265124153061131));
#1145=CARTESIAN_POINT('',(0.014,0.0107189103749797,0.00284812748465455));
#1146=CARTESIAN_POINT('',(0.014,0.010354356076261,0.003));
#1147=CARTESIAN_POINT('',(-3.46944695195361E-18,-3.46944695195361E-18,0.003));
#1148=CARTESIAN_POINT('',(-0.0115,-0.0115,0.003));
#1149=CARTESIAN_POINT('',(0.,6.73555739531044E-19,0.003));
#1150=CARTESIAN_POINT('',(0.,6.73555739531044E-19,0.));
#1151=CARTESIAN_POINT('',(0.011,6.73555739531044E-19,0.));
#1152=CARTESIAN_POINT('',(-3.46944695195361E-18,-3.46944695195361E-18,0.));
#1153=CARTESIAN_POINT('',(0.0115,-0.0115,0.));
#1154=CARTESIAN_POINT('',(0.01295,-0.0115,0.));
#1155=CARTESIAN_POINT('',(-0.0115,-0.0115,0.));
#1156=CARTESIAN_POINT('',(-0.01005,-0.0115,0.));
#1157=CARTESIAN_POINT('',(-0.0115,0.0115,0.));
#1158=CARTESIAN_POINT('',(-0.01005,0.0115,0.));
#1159=CARTESIAN_POINT('',(0.0115,0.0115,0.));
#1160=CARTESIAN_POINT('',(0.01295,0.0115,0.));
#1161=CARTESIAN_POINT('',(-3.46944695195361E-18,-3.46944695195361E-18,0.028));
#1162=CARTESIAN_POINT('',(-0.00825,0.0365,0.0205));
#1163=CARTESIAN_POINT('',(0.00825,0.0365,0.0205));
#1164=CARTESIAN_POINT('',(0.00825,0.0365,0.0105));
#1165=CARTESIAN_POINT('',(-0.00825,0.0365,0.0105));
#1166=CARTESIAN_POINT('',(-0.0105,0.0095,0.006));
#1167=CARTESIAN_POINT('',(-0.011,0.0095,0.006));
#1168=CARTESIAN_POINT('',(-0.00937138587605701,0.00989954082501222,0.00659931123751833));
#1169=CARTESIAN_POINT('',(-0.011,0.00829814957484534,0.00780277563773199));
#1170=CARTESIAN_POINT('',(-0.011,0.00829814957484534,0.00780277563773199));
#1171=CARTESIAN_POINT('',(-0.011,3.46944695195361E-18,0.014));
#1172=CARTESIAN_POINT('',(-0.0115,0.0115,0.003));
#1173=CARTESIAN_POINT('',(-0.0115,0.0115,0.0017));
#1174=CARTESIAN_POINT('',(-0.01295,0.0115,0.0017));
#1175=CARTESIAN_POINT('',(-0.00873871928698205,0.0115,0.00301128071301795));
#1176=CARTESIAN_POINT('',(-0.00873871928698205,0.0124005440584317,0.00301128071301795));
#1177=CARTESIAN_POINT('',(-0.00880690358997261,0.0132391761534666,0.00339797311095162));
#1178=CARTESIAN_POINT('',(-0.00888920488966103,0.014,0.00386472697560548));
#1179=CARTESIAN_POINT('',(-0.0115,0.0115,0.003));
#1180=CARTESIAN_POINT('',(0.0115,0.0115,0.003));
#1181=CARTESIAN_POINT('',(0.0115,0.0115,0.0017));
#1182=CARTESIAN_POINT('',(0.01005,0.0115,0.0017));
#1183=CARTESIAN_POINT('',(0.0115,0.0115,0.003));
#1184=CARTESIAN_POINT('',(0.00888920488966103,0.014,0.00386472697560548));
#1185=CARTESIAN_POINT('',(0.00880674673723092,0.0132377261483425,0.00339708355484933));
#1186=CARTESIAN_POINT('',(0.00873871928698205,0.0124049778900329,0.00301128071301795));
#1187=CARTESIAN_POINT('',(0.00873871928698205,0.0115,0.00301128071301795));
#1188=CARTESIAN_POINT('',(0.0115,0.0115,0.003));
#1189=CARTESIAN_POINT('',(-0.0115,-0.0115,0.003));
#1190=CARTESIAN_POINT('',(-0.0115,-0.0115,0.0017));
#1191=CARTESIAN_POINT('',(-0.01295,-0.0115,0.0017));
#1192=CARTESIAN_POINT('',(-0.0115,-0.0115,0.003));
#1193=CARTESIAN_POINT('',(0.0115,-0.0115,0.003));
#1194=CARTESIAN_POINT('',(0.0115,-0.0115,0.0017));
#1195=CARTESIAN_POINT('',(0.01005,-0.0115,0.0017));
#1196=CARTESIAN_POINT('',(0.0115,-0.0115,0.003));
#1197=CARTESIAN_POINT('',(-0.0105,3.46944695195361E-18,0.013));
#1198=CARTESIAN_POINT('',(0.0105,0.0095,0.006));
#1199=CARTESIAN_POINT('',(0.00929171899671985,0.0095983319420719,0.00614749791310785));
#1200=CARTESIAN_POINT('',(0.011,0.0095,0.006));
#1201=CARTESIAN_POINT('',(0.0105,-0.01275,0.003));
#1202=CARTESIAN_POINT('',(0.011,0.00829814957484534,0.00780277563773199));
#1203=CARTESIAN_POINT('',(0.011,0.00829814957484534,0.00780277563773199));
#1204=CARTESIAN_POINT('',(0.011,3.46944695195361E-18,0.014));
#1205=CARTESIAN_POINT('',(0.00873673019291535,0.0115,0.003));
#1206=MECHANICAL_DESIGN_GEOMETRIC_PRESENTATION_REPRESENTATION('',(#713),
#1207);
#1207=(
GEOMETRIC_REPRESENTATION_CONTEXT(3)
GLOBAL_UNCERTAINTY_ASSIGNED_CONTEXT((#1208))
GLOBAL_UNIT_ASSIGNED_CONTEXT((#1211,#1210,#1209))
REPRESENTATION_CONTEXT('Part 1','TOP_LEVEL_ASSEMBLY_PART')
);
#1208=UNCERTAINTY_MEASURE_WITH_UNIT(LENGTH_MEASURE(2.E-5),#1211,
'DISTANCE_ACCURACY_VALUE','Maximum Tolerance applied to model');
#1209=(
NAMED_UNIT(*)
SI_UNIT($,.STERADIAN.)
SOLID_ANGLE_UNIT()
);
#1210=(
NAMED_UNIT(*)
PLANE_ANGLE_UNIT()
SI_UNIT($,.RADIAN.)
);
#1211=(
LENGTH_UNIT()
NAMED_UNIT(*)
SI_UNIT($,.METRE.)
);
#1212=PRODUCT_DEFINITION_SHAPE('','',#1213);
#1213=PRODUCT_DEFINITION('','',#1215,#1214);
#1214=PRODUCT_DEFINITION_CONTEXT('',#1221,'design');
#1215=PRODUCT_DEFINITION_FORMATION_WITH_SPECIFIED_SOURCE('','',#1217,
 .NOT_KNOWN.);
#1216=PRODUCT_RELATED_PRODUCT_CATEGORY('','',(#1217));
#1217=PRODUCT('Part 1','Part 1','Part 1',(#1219));
#1218=PRODUCT_CATEGORY('','');
#1219=PRODUCT_CONTEXT('',#1221,'mechanical');
#1220=APPLICATION_PROTOCOL_DEFINITION('international standard',
'ap242_managed_model_based_3d_engineering',2020,#1221);
#1221=APPLICATION_CONTEXT('managed model based 3d engineering');
ENDSEC;
END-ISO-10303-21;
